<svg xmlns="http://www.w3.org/2000/svg" width="925" height="530" version="1.1">
<style type="text/css">
.l0{
 fill: #ffffff;
  stroke: #ffffff;
  stroke-linecap:round;
  stroke-linejoin:round;
  stroke-width: 0.96;
  fill-opacity: 0;
  stroke-opacity: 0;
}
.l1{
 fill: #0044ee;
  stroke: #0044ee;
  stroke-linecap:round;
  stroke-linejoin:round;
  stroke-width: 0.96;
}
.l2{
  fill: none;
  stroke: #aaaaaa;
  stroke-linecap:round;
  stroke-linejoin:round;
  stroke-width: 0.96;
}
.l3{
 fill: #222222; fill-opacity: 0.5;
  stroke: #222222;
  stroke-linecap:round;
  stroke-linejoin:round;
  stroke-width: 0.96;
}
.l4{
 fill: #229900;
  stroke: #229900;
  stroke-linecap:round;
  stroke-linejoin:round;
  stroke-width: 0.96;
}
.l5{
 fill: #bb2200;
  stroke: #bb2200;
  stroke-linecap:round;
  stroke-linejoin:round;
  stroke-width: 0.96;
}
.l6{
 fill: #00ccee; fill-opacity: 0.5;
  stroke: #00ccee;
  stroke-linecap:round;
  stroke-linejoin:round;
  stroke-width: 0.96;
}
.l7{
 fill: #ff0000; fill-opacity: 0.5;
  stroke: #ff0000;
  stroke-linecap:round;
  stroke-linejoin:round;
  stroke-width: 0.96;
}
.l8{
 fill: #888800; fill-opacity: 0.5;
  stroke: #888800;
  stroke-linecap:round;
  stroke-linejoin:round;
  stroke-width: 0.96;
}
.l9{
 fill: #00aaaa; fill-opacity: 0.5;
  stroke: #00aaaa;
  stroke-linecap:round;
  stroke-linejoin:round;
  stroke-width: 0.96;
}
.l10{
 fill: #880088;
  stroke: #880088;
  stroke-linecap:round;
  stroke-linejoin:round;
  stroke-width: 0.96;
}
.l11{
 fill: #00ff00; fill-opacity: 0.5;
  stroke: #00ff00;
  stroke-linecap:round;
  stroke-linejoin:round;
  stroke-width: 0.96;
}
.l12{
 fill: #0000cc; fill-opacity: 0.5;
  stroke: #0000cc;
  stroke-linecap:round;
  stroke-linejoin:round;
  stroke-width: 0.96;
}
.l13{
 fill: #666600; fill-opacity: 0.5;
  stroke: #666600;
  stroke-linecap:round;
  stroke-linejoin:round;
  stroke-width: 0.96;
}
.l14{
  fill: none;
  stroke: #557755;
  stroke-linecap:round;
  stroke-linejoin:round;
  stroke-width: 0.96;
}
.l15{
 fill: #aa2222; fill-opacity: 0.5;
  stroke: #aa2222;
  stroke-linecap:round;
  stroke-linejoin:round;
  stroke-width: 0.96;
}
.l16{
 fill: #7ccc40; fill-opacity: 0.5;
  stroke: #7ccc40;
  stroke-linecap:round;
  stroke-linejoin:round;
  stroke-width: 0.96;
}
.l17{
  fill: none;
  stroke: #00ffcc;
  stroke-linecap:round;
  stroke-linejoin:round;
  stroke-width: 0.96;
}
.l18{
 fill: #ce0097; fill-opacity: 0.5;
  stroke: #ce0097;
  stroke-linecap:round;
  stroke-linejoin:round;
  stroke-width: 0.96;
}
.l19{
  fill: none;
  stroke: #d2d46b;
  stroke-linecap:round;
  stroke-linejoin:round;
  stroke-width: 0.96;
}
.l20{
  fill: none;
  stroke: #ef6158;
  stroke-linecap:round;
  stroke-linejoin:round;
  stroke-width: 0.96;
}
.l21{
  fill: none;
  stroke: #fdb200;
  stroke-linecap:round;
  stroke-linejoin:round;
  stroke-width: 0.96;
}
text {font-family: Sans-Serif;}
</style>
<rect class="l0" x="0" y="0" width="925" height="530"/>
<text fill="#222222"  xml:space="preserve" font-size="15.8159" transform="translate(203.97, 37.8532)" >CMOS DIFFERENTIAL AMPLIFIER</text>
<text fill="#222222"  xml:space="preserve" font-size="15.8159" transform="translate(203.97, 55.8532)" >EXAMPLE</text>
<text fill="#0044ee"  xml:space="preserve" font-size="13.0481" transform="translate(570.458, 249.673)" >0</text>
<text fill="#0044ee"  xml:space="preserve" font-size="13.0481" transform="translate(22.9836, 356.126)" >0</text>
<text fill="#0044ee"  xml:space="preserve" font-size="13.0481" transform="translate(433.59, 447.372)" >0</text>
<text fill="#0044ee"  xml:space="preserve" font-size="13.0481" transform="translate(65.2007, 287.692)" >VCC</text>
<text fill="#0044ee"  xml:space="preserve" font-size="13.0481" transform="translate(197.871, 447.372)" >0</text>
<text fill="#0044ee"  xml:space="preserve" font-size="13.0481" transform="translate(197.871, 295.295)" >0</text>
<text fill="#0044ee"  xml:space="preserve" font-size="13.0481" transform="translate(414.976, 302.899)" >0</text>
<text fill="#0044ee"  xml:space="preserve" font-size="13.0481" transform="translate(509.628, 302.899)" >0</text>
<text fill="#0044ee"  xml:space="preserve" font-size="13.0481" transform="translate(582.26, 150.823)" >VCC</text>
<text fill="#0044ee"  xml:space="preserve" font-size="13.0481" transform="translate(323.344, 150.823)" >VCC</text>
<text fill="#0044ee"  xml:space="preserve" font-size="13.0481" transform="translate(414.59, 82.3887)" >VCC</text>
<text fill="#0044ee"  xml:space="preserve" font-size="13.0481" transform="translate(309.74, 302.899)" >PLUS</text>
<text fill="#0044ee"  xml:space="preserve" font-size="13.0481" transform="translate(589.864, 302.899)" >MINUS</text>
<text fill="#0044ee"  xml:space="preserve" font-size="13.0481" transform="translate(650.694, 204.05)" >DIFFOUT</text>
<text fill="#0044ee"  xml:space="preserve" font-size="13.0481" transform="translate(185.871, 363.73)" >GN</text>
<text fill="#0044ee"  xml:space="preserve" font-size="13.0481" transform="translate(22.9836, 257.276)" >0</text>
<text fill="#0044ee"  xml:space="preserve" font-size="13.0481" transform="translate(65.2007, 188.842)" >PLUS</text>
<text fill="#0044ee"  xml:space="preserve" font-size="13.0481" transform="translate(22.9836, 143.219)" >0</text>
<text fill="#0044ee"  xml:space="preserve" font-size="13.0481" transform="translate(65.2007, 74.7849)" >MINUS</text>
<text fill="#0044ee"  xml:space="preserve" font-size="13.0481" transform="translate(378.363, 196.446)" >G</text>
<text fill="#222222"  xml:space="preserve" font-size="15.8159" transform="translate(314.226, 513.092)" >cmos_example.sch</text>
<text fill="#222222"  xml:space="preserve" font-size="15.8159" transform="translate(314.226, 490.28)" >Stefan Schippers</text>
<text fill="#222222"  xml:space="preserve" font-size="15.8159" transform="translate(740.125, 490.28)" >2020-12-28  02:00:13</text>
<text fill="#222222"  xml:space="preserve" font-size="39.5398" transform="translate(139.338, 511.821)" >SCHEM</text>
<text fill="#222222"  xml:space="preserve" font-size="7.90797" transform="translate(437.788, 389.003)" >5u/2u/1</text>
<text fill="#222222"  xml:space="preserve" font-size="7.90797" transform="translate(437.788, 408.963)" >m1</text>
<text fill="#222222"  xml:space="preserve" font-size="5.93097" transform="translate(451.094, 380.554)" >D</text>
<text fill="#222222"  xml:space="preserve" font-size="7.90797" transform="translate(529.033, 139.027)" >5u/2u/1</text>
<text fill="#222222"  xml:space="preserve" font-size="7.90797" transform="translate(529.033, 158.037)" >m2</text>
<text fill="#222222"  xml:space="preserve" font-size="5.93097" transform="translate(542.34, 165.746)" >D</text>
<text fill="#222222"  xml:space="preserve" font-size="7.90797" transform="translate(51.8941, 320.568)" >VVCC</text>
<text fill="#222222"  xml:space="preserve" font-size="7.90797" transform="translate(51.8941, 330.073)" >5</text>
<text fill="#222222"  xml:space="preserve" font-size="7.90797" transform="translate(191.079, 389.003)" >5u/2u/1</text>
<text fill="#222222"  xml:space="preserve" font-size="7.90797" transform="translate(208.079, 408.963)" >m3</text>
<text fill="#222222"  xml:space="preserve" font-size="5.93097" transform="translate(203.772, 380.554)" >D</text>
<text fill="#222222"  xml:space="preserve" font-size="7.90797" transform="translate(226.782, 312.014)" >IBIAS</text>
<text fill="#222222"  xml:space="preserve" font-size="7.90797" transform="translate(226.782, 321.014)" >100u</text>
<text fill="#222222"  xml:space="preserve" font-size="7.90797" transform="translate(384.561, 290.153)" >10u/1u/1</text>
<text fill="#222222"  xml:space="preserve" font-size="7.90797" transform="translate(384.561, 310.113)" >m4</text>
<text fill="#222222"  xml:space="preserve" font-size="5.93097" transform="translate(397.868, 281.704)" >D</text>
<text fill="#222222"  xml:space="preserve" font-size="7.90797" transform="translate(513.043, 290.153)" >10u/1u/1</text>
<text fill="#222222"  xml:space="preserve" font-size="7.90797" transform="translate(535.043, 310.113)" >m5</text>
<text fill="#222222"  xml:space="preserve" font-size="5.93097" transform="translate(530.736, 281.704)" >D</text>
<text fill="#222222"  xml:space="preserve" font-size="7.90797" transform="translate(373.57, 139.027)" >5u/2u/1</text>
<text fill="#222222"  xml:space="preserve" font-size="7.90797" transform="translate(390.57, 158.037)" >m6</text>
<text fill="#222222"  xml:space="preserve" font-size="5.93097" transform="translate(386.264, 165.746)" >D</text>
<text fill="#222222"  xml:space="preserve" font-size="7.90797" transform="translate(51.8941, 221.719)" >VPLUS</text>
<text fill="#222222"  xml:space="preserve" font-size="7.90797" transform="translate(51.8941, 231.223)" >2.5 pwl 0 2.4 10n 2.4 10.1n 2.6</text>
<text fill="#222222"  xml:space="preserve" font-size="7.90797" transform="translate(51.8941, 107.661)" >V1</text>
<text fill="#222222"  xml:space="preserve" font-size="7.90797" transform="translate(51.8941, 117.166)" >2.5</text>
<text fill="#666600"  xml:space="preserve" font-size="7.90797" transform="translate(576.359, 208.412)" >1</text>
<text fill="#666600"  xml:space="preserve" font-size="7.90797" transform="translate(576.359, 240.728)" >2</text>
<text fill="#222222"  xml:space="preserve" font-size="7.90797" transform="translate(595.567, 214.115)" >CL</text>
<text fill="#222222"  xml:space="preserve" font-size="7.90797" transform="translate(595.567, 223.62)" >2p</text>
<text fill="#222222"  xml:space="preserve" font-size="7.90797" transform="translate(595.567, 233.124)" >m=1</text>
<text fill="#222222"  xml:space="preserve" font-size="11.8619" transform="translate(709.624, 365.029)" >STIMULI</text>
<text fill="#222222"  xml:space="preserve" font-size="15.8159" transform="translate(553.746, 477.478)" >Backannotate</text>
<text fill="#aa2222"  xml:space="preserve" font-size="7.90797" transform="translate(551.37, 190.724)" > 3.321 </text>
<text fill="#aa2222"  xml:space="preserve" font-size="7.90797" transform="translate(404.996, 270.564)" >5.005e-05 </text>
<text fill="#aa2222"  xml:space="preserve" font-size="7.90797" transform="translate(404.996, 261.059)" >i(m4[id]) </text>
<text fill="#222222"  xml:space="preserve" font-size="15.8159" transform="translate(553.746, 439.459)" >View raw file</text>
<text fill="#aa2222"  xml:space="preserve" font-size="7.90797" transform="translate(484.608, 270.564)" >5.005e-05 </text>
<text fill="#aa2222"  xml:space="preserve" font-size="7.90797" transform="translate(490.608, 261.059)" >i(m5[id]) </text>
<text fill="#aa2222"  xml:space="preserve" font-size="7.90797" transform="translate(383.758, 369.414)" >0.0001001 </text>
<text fill="#aa2222"  xml:space="preserve" font-size="7.90797" transform="translate(391.758, 359.909)" >i(m1[id]) </text>
<text fill="#aa2222"  xml:space="preserve" font-size="7.90797" transform="translate(399.293, 205.932)" > 3.321 </text>
<text fill="#aa2222"  xml:space="preserve" font-size="7.90797" transform="translate(285.236, 388.423)" > 1.31 </text>
<text fill="#aa2222"  xml:space="preserve" font-size="7.90797" transform="translate(498.143, 84.2707)" > 5 </text>
<path class="l4" d="M435.887 373.268L435.887 418.891"/>
<path class="l4" d="M435.887 380.872L447.292 380.872"/>
<path class="l4" d="M447.292 373.268L447.292 380.872"/>
<path class="l4" d="M435.887 411.287L447.292 411.287"/>
<path class="l4" d="M447.292 411.287L447.292 418.891"/>
<path class="l4" d="M428.283 384.674L428.283 407.485"/>
<path class="l4" d="M428.283 396.079L428.283 399.881"/>
<path class="l4" d="M416.877 396.079L422.58 396.079"/>
<path class="l4" d="M416.877 396.079L428.283 396.079"/>
<path class="l4" d="M439.689 396.079L447.292 396.079"/>
<path class="l4" d="M435.887 392.277L439.689 396.079"/>
<path class="l4" d="M435.887 399.881L439.689 396.079"/>
<path class="l4" d="M527.132 122.342L527.132 167.965"/>
<path class="l4" d="M527.132 160.361L538.538 160.361"/>
<path class="l4" d="M538.538 160.361L538.538 167.965"/>
<path class="l4" d="M527.132 129.946L538.538 129.946"/>
<path class="l4" d="M538.538 122.342L538.538 129.946"/>
<path class="l4" d="M519.529 133.748L519.529 156.559"/>
<path class="l4" d="M519.529 141.351L519.529 145.153"/>
<path class="l4" d="M517.628 141.351L519.529 143.252"/>
<path class="l4" d="M515.727 141.351L517.628 141.351"/>
<path class="l4" d="M513.826 143.252L515.727 141.351"/>
<path class="l4" d="M513.826 143.252L513.826 147.054"/>
<path class="l4" d="M513.826 147.054L515.727 148.955"/>
<path class="l4" d="M515.727 148.955L517.628 148.955"/>
<path class="l4" d="M517.628 148.955L519.529 147.054"/>
<path class="l4" d="M508.123 145.153L513.826 145.153"/>
<path class="l4" d="M530.934 145.153L538.538 145.153"/>
<path class="l4" d="M527.132 141.351L530.934 145.153"/>
<path class="l4" d="M527.132 148.955L530.934 145.153"/>
<path class="l4" d="M38.5874 310.536L42.3893 310.536"/>
<path class="l4" d="M40.4883 308.635L40.4883 312.437"/>
<path class="l4" d="M36.6864 304.833L36.6864 350.456"/>
<circle class="l4" cx="36.6864" cy="327.645" r="11.4057" style="fill:none;"/>
<path class="l4" d="M222.98 373.268L222.98 418.891"/>
<path class="l4" d="M211.574 380.872L222.98 380.872"/>
<path class="l4" d="M211.574 373.268L211.574 380.872"/>
<path class="l4" d="M211.574 411.287L222.98 411.287"/>
<path class="l4" d="M211.574 411.287L211.574 418.891"/>
<path class="l4" d="M230.584 384.674L230.584 407.485"/>
<path class="l4" d="M230.584 396.079L230.584 399.881"/>
<path class="l4" d="M236.287 396.079L241.989 396.079"/>
<path class="l4" d="M230.584 396.079L241.989 396.079"/>
<path class="l4" d="M211.574 396.079L219.178 396.079"/>
<path class="l4" d="M219.178 396.079L222.98 392.277"/>
<path class="l4" d="M219.178 396.079L222.98 399.881"/>
<path class="l4" d="M211.574 289.626L211.574 301.032"/>
<path class="l4" d="M211.574 323.843L211.574 335.249"/>
<path class="l4" d="M213.475 295.329L217.277 295.329"/>
<path class="l4" d="M215.376 293.428L215.376 297.23"/>
<path class="l4" d="M211.574 306.734L211.574 314.338L213.475 314.338L211.574 320.041L209.673 314.338L211.574 314.338L211.574 306.734"/>
<circle class="l4" cx="211.574" cy="312.437" r="11.4057" style="fill:none;"/>
<path class="l4" d="M382.66 274.418L382.66 320.041"/>
<path class="l4" d="M382.66 282.022L394.066 282.022"/>
<path class="l4" d="M394.066 274.418L394.066 282.022"/>
<path class="l4" d="M382.66 312.437L394.066 312.437"/>
<path class="l4" d="M394.066 312.437L394.066 320.041"/>
<path class="l4" d="M375.056 285.824L375.056 308.635"/>
<path class="l4" d="M375.056 297.23L375.056 301.032"/>
<path class="l4" d="M363.65 297.23L369.353 297.23"/>
<path class="l4" d="M363.65 297.23L375.056 297.23"/>
<path class="l4" d="M386.462 297.23L394.066 297.23"/>
<path class="l4" d="M382.66 293.428L386.462 297.23"/>
<path class="l4" d="M382.66 301.032L386.462 297.23"/>
<path class="l4" d="M549.944 274.418L549.944 320.041"/>
<path class="l4" d="M538.538 282.022L549.944 282.022"/>
<path class="l4" d="M538.538 274.418L538.538 282.022"/>
<path class="l4" d="M538.538 312.437L549.944 312.437"/>
<path class="l4" d="M538.538 312.437L538.538 320.041"/>
<path class="l4" d="M557.548 285.824L557.548 308.635"/>
<path class="l4" d="M557.548 297.23L557.548 301.032"/>
<path class="l4" d="M563.251 297.23L568.953 297.23"/>
<path class="l4" d="M557.548 297.23L568.953 297.23"/>
<path class="l4" d="M538.538 297.23L546.142 297.23"/>
<path class="l4" d="M546.142 297.23L549.944 293.428"/>
<path class="l4" d="M546.142 297.23L549.944 301.032"/>
<path class="l4" d="M405.471 122.342L405.471 167.965"/>
<path class="l4" d="M394.066 160.361L405.471 160.361"/>
<path class="l4" d="M394.066 160.361L394.066 167.965"/>
<path class="l4" d="M394.066 129.946L405.471 129.946"/>
<path class="l4" d="M394.066 122.342L394.066 129.946"/>
<path class="l4" d="M413.075 133.748L413.075 156.559"/>
<path class="l4" d="M413.075 141.351L413.075 145.153"/>
<path class="l4" d="M413.075 143.252L414.976 141.351"/>
<path class="l4" d="M414.976 141.351L416.877 141.351"/>
<path class="l4" d="M416.877 141.351L418.778 143.252"/>
<path class="l4" d="M418.778 143.252L418.778 147.054"/>
<path class="l4" d="M416.877 148.955L418.778 147.054"/>
<path class="l4" d="M414.976 148.955L416.877 148.955"/>
<path class="l4" d="M413.075 147.054L414.976 148.955"/>
<path class="l4" d="M418.778 145.153L424.481 145.153"/>
<path class="l4" d="M394.066 145.153L401.669 145.153"/>
<path class="l4" d="M401.669 145.153L405.471 141.351"/>
<path class="l4" d="M401.669 145.153L405.471 148.955"/>
<path class="l4" d="M38.5874 211.687L42.3893 211.687"/>
<path class="l4" d="M40.4883 209.786L40.4883 213.588"/>
<path class="l4" d="M36.6864 205.984L36.6864 251.607"/>
<circle class="l4" cx="36.6864" cy="228.795" r="11.4057" style="fill:none;"/>
<path class="l4" d="M38.5874 97.6296L42.3893 97.6296"/>
<path class="l4" d="M40.4883 95.7286L40.4883 99.5305"/>
<path class="l4" d="M36.6864 91.9267L36.6864 137.55"/>
<circle class="l4" cx="36.6864" cy="114.738" r="11.4057" style="fill:none;"/>
<path class="l4" d="M584.161 224.993L584.161 244.003"/>
<path class="l4" d="M584.161 198.38L584.161 217.39"/>
<path class="l4" d="M576.557 217.39L591.765 217.39"/>
<path class="l4" d="M576.557 224.993L591.765 224.993"/>
<path class="l4" d="M586.062 204.083L589.864 204.083"/>
<path class="l4" d="M587.963 202.182L587.963 205.984"/>
<path class="l4" d="M713.426 396.079L743.841 396.079"/>
<path class="l4" d="M713.426 403.683L728.633 403.683"/>
<path class="l4" d="M713.426 411.287L743.841 411.287"/>
<path class="l4" d="M713.426 418.891L736.237 418.891"/>
<path class="l4" d="M713.426 426.494L736.237 426.494"/>
<path class="l4" d="M713.426 434.098L766.653 434.098"/>
<path class="l4" d="M713.426 441.702L728.633 441.702"/>
<path class="l4" d="M713.426 388.475L751.445 388.475"/>
<path class="l4" d="M713.426 380.872L728.633 380.872"/>
<path class="l4" d="M774.256 380.872L781.86 380.872"/>
<path class="l4" d="M781.86 380.872L781.86 456.91"/>
<path class="l4" d="M713.426 456.91L781.86 456.91"/>
<path class="l4" d="M713.426 449.306L713.426 456.91"/>
<path class="l4" d="M774.256 373.268L774.256 449.306"/>
<path class="l4" d="M705.822 449.306L774.256 449.306"/>
<path class="l4" d="M705.822 373.268L705.822 449.306"/>
<path class="l4" d="M705.822 373.268L774.256 373.268"/>
<path class="l4" d="M546.142 472.117L523.331 462.613L523.331 468.315L500.519 468.315L508.123 472.117L500.519 475.919L523.331 475.919L523.331 481.622L546.142 472.117"/>
<path class="l4" d="M546.142 434.098L523.331 424.594L523.331 430.296L500.519 430.296L508.123 434.098L500.519 437.9L523.331 437.9L523.331 443.603L546.142 434.098"/>
<path class="l5" d="M583.211 243.052L585.111 243.052L585.111 244.953L583.211 244.953L583.211 243.052z"/>
<path class="l5" d="M35.736 349.506L37.6369 349.506L37.6369 351.407L35.736 351.407L35.736 349.506z"/>
<path class="l5" d="M139.338 472.117L116.526 494.929L139.338 517.74L124.13 517.74L108.923 502.533L93.715 517.74L78.5074 517.74L101.319 494.929L78.5074 472.117L93.715 472.117L108.923 487.325L124.13 472.117L139.338 472.117"/>
<path class="l5" d="M445.391 371.367L449.193 371.367L449.193 375.169L445.391 375.169L445.391 371.367z"/>
<path class="l5" d="M414.976 394.178L418.778 394.178L418.778 397.98L414.976 397.98L414.976 394.178z"/>
<path class="l5" d="M445.391 416.99L449.193 416.99L449.193 420.792L445.391 420.792L445.391 416.99z"/>
<path class="l5" d="M445.391 394.178L449.193 394.178L449.193 397.98L445.391 397.98L445.391 394.178z"/>
<path class="l5" d="M536.637 166.064L540.439 166.064L540.439 169.866L536.637 169.866L536.637 166.064z"/>
<path class="l5" d="M506.222 143.252L510.024 143.252L510.024 147.054L506.222 147.054L506.222 143.252z"/>
<path class="l5" d="M536.637 120.441L540.439 120.441L540.439 124.243L536.637 124.243L536.637 120.441z"/>
<path class="l5" d="M536.637 143.252L540.439 143.252L540.439 147.054L536.637 147.054L536.637 143.252z"/>
<path class="l5" d="M34.7855 302.933L38.5874 302.933L38.5874 306.734L34.7855 306.734L34.7855 302.933z"/>
<path class="l5" d="M34.7855 348.555L38.5874 348.555L38.5874 352.357L34.7855 352.357L34.7855 348.555z"/>
<path class="l5" d="M446.342 440.752L448.243 440.752L448.243 442.653L446.342 442.653L446.342 440.752z"/>
<path class="l5" d="M58.5474 281.072L60.4484 281.072L60.4484 282.973L58.5474 282.973L58.5474 281.072z"/>
<path class="l5" d="M209.673 371.367L213.475 371.367L213.475 375.169L209.673 375.169L209.673 371.367z"/>
<path class="l5" d="M240.088 394.178L243.89 394.178L243.89 397.98L240.088 397.98L240.088 394.178z"/>
<path class="l5" d="M209.673 416.99L213.475 416.99L213.475 420.792L209.673 420.792L209.673 416.99z"/>
<path class="l5" d="M209.673 394.178L213.475 394.178L213.475 397.98L209.673 397.98L209.673 394.178z"/>
<path class="l5" d="M210.624 440.752L212.525 440.752L212.525 442.653L210.624 442.653L210.624 440.752z"/>
<path class="l5" d="M209.673 287.725L213.475 287.725L213.475 291.527L209.673 291.527L209.673 287.725z"/>
<path class="l5" d="M209.673 333.348L213.475 333.348L213.475 337.15L209.673 337.15L209.673 333.348z"/>
<path class="l5" d="M210.624 288.675L212.525 288.675L212.525 290.576L210.624 290.576L210.624 288.675z"/>
<path class="l5" d="M392.165 272.517L395.967 272.517L395.967 276.319L392.165 276.319L392.165 272.517z"/>
<path class="l5" d="M361.749 295.329L365.551 295.329L365.551 299.131L361.749 299.131L361.749 295.329z"/>
<path class="l5" d="M392.165 318.14L395.967 318.14L395.967 321.942L392.165 321.942L392.165 318.14z"/>
<path class="l5" d="M392.165 295.329L395.967 295.329L395.967 299.131L392.165 299.131L392.165 295.329z"/>
<path class="l5" d="M408.323 296.279L410.224 296.279L410.224 298.18L408.323 298.18L408.323 296.279z"/>
<path class="l5" d="M536.637 272.517L540.439 272.517L540.439 276.319L536.637 276.319L536.637 272.517z"/>
<path class="l5" d="M567.052 295.329L570.854 295.329L570.854 299.131L567.052 299.131L567.052 295.329z"/>
<path class="l5" d="M536.637 318.14L540.439 318.14L540.439 321.942L536.637 321.942L536.637 318.14z"/>
<path class="l5" d="M536.637 295.329L540.439 295.329L540.439 299.131L536.637 299.131L536.637 295.329z"/>
<path class="l5" d="M522.38 296.279L524.281 296.279L524.281 298.18L522.38 298.18L522.38 296.279z"/>
<path class="l5" d="M575.607 144.203L577.508 144.203L577.508 146.104L575.607 146.104L575.607 144.203z"/>
<path class="l5" d="M392.165 166.064L395.967 166.064L395.967 169.866L392.165 169.866L392.165 166.064z"/>
<path class="l5" d="M422.58 143.252L426.382 143.252L426.382 147.054L422.58 147.054L422.58 143.252z"/>
<path class="l5" d="M392.165 120.441L395.967 120.441L395.967 124.243L392.165 124.243L392.165 120.441z"/>
<path class="l5" d="M392.165 143.252L395.967 143.252L395.967 147.054L392.165 147.054L392.165 143.252z"/>
<path class="l5" d="M355.096 144.203L356.997 144.203L356.997 146.104L355.096 146.104L355.096 144.203z"/>
<path class="l5" d="M446.342 75.7686L448.243 75.7686L448.243 77.6695L446.342 77.6695L446.342 75.7686z"/>
<path class="l5" d="M347.492 296.279L349.393 296.279L349.393 298.18L347.492 298.18L347.492 296.279z"/>
<path class="l5" d="M583.211 296.279L585.111 296.279L585.111 298.18L583.211 298.18L583.211 296.279z"/>
<path class="l5" d="M644.041 197.43L645.942 197.43L645.942 199.331L644.041 199.331L644.041 197.43z"/>
<path class="l5" d="M210.624 357.11L212.525 357.11L212.525 359.011L210.624 359.011L210.624 357.11z"/>
<path class="l5" d="M35.736 250.656L37.6369 250.656L37.6369 252.557L35.736 252.557L35.736 250.656z"/>
<path class="l5" d="M34.7855 204.083L38.5874 204.083L38.5874 207.885L34.7855 207.885L34.7855 204.083z"/>
<path class="l5" d="M34.7855 249.706L38.5874 249.706L38.5874 253.508L34.7855 253.508L34.7855 249.706z"/>
<path class="l5" d="M58.5474 182.222L60.4484 182.222L60.4484 184.123L58.5474 184.123L58.5474 182.222z"/>
<path class="l5" d="M35.736 136.599L37.6369 136.599L37.6369 138.5L35.736 138.5L35.736 136.599z"/>
<path class="l5" d="M34.7855 90.0257L38.5874 90.0257L38.5874 93.8276L34.7855 93.8276L34.7855 90.0257z"/>
<path class="l5" d="M34.7855 135.649L38.5874 135.649L38.5874 139.451L34.7855 139.451L34.7855 135.649z"/>
<path class="l5" d="M58.5474 68.1648L60.4484 68.1648L60.4484 70.0657L58.5474 70.0657L58.5474 68.1648z"/>
<path class="l5" d="M582.26 196.479L586.062 196.479L586.062 200.281L582.26 200.281L582.26 196.479z"/>
<path class="l5" d="M582.26 242.102L586.062 242.102L586.062 245.904L582.26 245.904L582.26 242.102z"/>
<path class="l5" d="M393.115 189.826L395.016 189.826L395.016 191.727L393.115 191.727L393.115 189.826z"/>
<path class="l5" d="M545.786 198.024L546.498 198.024L546.498 198.737L545.786 198.737L545.786 198.024z"/>
<path class="l5" d="M393.709 213.231L394.422 213.231L394.422 213.944L393.709 213.944L393.709 213.231z"/>
<path class="l5" d="M279.652 395.723L280.365 395.723L280.365 396.436L279.652 396.436L279.652 395.723z"/>
<path class="l5" d="M492.559 91.5703L493.272 91.5703L493.272 92.2831L492.559 92.2831L492.559 91.5703z"/>
<path class="l6" d="M306.622 494.929L911.125 494.929"/>
<path class="l6" d="M13.875 494.929L63.2998 494.929"/>
<path class="l15" d="M546.142 198.38L549.944 194.578"/>
<circle class="l15" cx="401.669" cy="274.418" r="1.42572" />
<circle class="l15" cx="530.934" cy="274.418" r="1.42572" />
<circle class="l15" cx="432.085" cy="373.268" r="1.42572" />
<path class="l15" d="M394.066 213.588L397.868 209.786"/>
<path class="l15" d="M280.008 396.079L283.81 392.277"/>
<path class="l15" d="M492.915 91.9267L496.717 88.1248"/>
<path class="l1" d="M36.6864 282.022L36.6864 304.833"/>
<path class="l1" d="M36.6864 282.022L59.4979 282.022"/>
<path class="l1" d="M211.574 335.249L211.574 373.268"/>
<path class="l1" d="M211.574 373.268L241.989 373.268"/>
<path class="l1" d="M241.989 373.268L241.989 396.079"/>
<path class="l1" d="M241.989 396.079L416.877 396.079"/>
<path class="l1" d="M394.066 297.23L409.273 297.23"/>
<path class="l1" d="M523.331 297.23L538.538 297.23"/>
<path class="l1" d="M394.066 320.041L538.538 320.041"/>
<path class="l1" d="M348.443 297.23L363.65 297.23"/>
<path class="l1" d="M568.953 297.23L584.161 297.23"/>
<path class="l1" d="M538.538 145.153L576.557 145.153"/>
<path class="l1" d="M356.047 145.153L394.066 145.153"/>
<path class="l1" d="M424.481 145.153L508.123 145.153"/>
<path class="l1" d="M424.481 145.153L424.481 167.965"/>
<path class="l1" d="M394.066 167.965L424.481 167.965"/>
<path class="l1" d="M538.538 91.9267L538.538 122.342"/>
<path class="l1" d="M394.066 91.9267L538.538 91.9267"/>
<path class="l1" d="M394.066 91.9267L394.066 122.342"/>
<path class="l1" d="M447.292 76.7191L447.292 91.9267"/>
<path class="l1" d="M538.538 198.38L644.992 198.38"/>
<path class="l1" d="M36.6864 183.172L36.6864 205.984"/>
<path class="l1" d="M36.6864 183.172L59.4979 183.172"/>
<path class="l1" d="M36.6864 69.1153L36.6864 91.9267"/>
<path class="l1" d="M36.6864 69.1153L59.4979 69.1153"/>
<path class="l1" d="M447.292 418.891L447.292 441.702"/>
<path class="l1" d="M447.292 418.891L462.5 418.891"/>
<path class="l1" d="M462.5 396.079L462.5 418.891"/>
<path class="l1" d="M447.292 396.079L462.5 396.079"/>
<path class="l1" d="M211.574 418.891L211.574 441.702"/>
<path class="l1" d="M196.367 418.891L211.574 418.891"/>
<path class="l1" d="M196.367 396.079L196.367 418.891"/>
<path class="l1" d="M196.367 396.079L211.574 396.079"/>
<path class="l1" d="M538.538 167.965L538.538 228.795"/>
<path class="l1" d="M394.066 167.965L394.066 228.795"/>
<path class="l1" d="M447.292 320.041L447.292 327.645"/>
<path class="l1" d="M538.538 228.795L538.538 274.418"/>
<path class="l1" d="M394.066 228.795L394.066 274.418"/>
<path class="l1" d="M447.292 327.645L447.292 373.268"/>
<circle class="l1" cx="538.538" cy="198.38" r="3.04153"/>
<circle class="l1" cx="447.292" cy="91.9267" r="3.04153"/>
<circle class="l1" cx="447.292" cy="320.041" r="3.04153"/>
</svg>
