<svg xmlns="http://www.w3.org/2000/svg" width="967" height="538" version="1.1">
<style type="text/css">
.l0{
 fill: #ffffff;
  stroke: #ffffff;
  stroke-linecap:round;
  stroke-linejoin:round;
  stroke-width: 2.13622;
  fill-opacity: 0;
  stroke-opacity: 0;
}
.l1{
 fill: #0044ee;
  stroke: #0044ee;
  stroke-linecap:round;
  stroke-linejoin:round;
  stroke-width: 2.13622;
}
.l2{
  fill: none;
  stroke: #aaaaaa;
  stroke-linecap:round;
  stroke-linejoin:round;
  stroke-width: 2.13622;
}
.l3{
 fill: #222222; fill-opacity: 0.5;
  stroke: #222222;
  stroke-linecap:round;
  stroke-linejoin:round;
  stroke-width: 2.13622;
}
.l4{
 fill: #229900;
  stroke: #229900;
  stroke-linecap:round;
  stroke-linejoin:round;
  stroke-width: 2.13622;
}
.l5{
 fill: #bb2200;
  stroke: #bb2200;
  stroke-linecap:round;
  stroke-linejoin:round;
  stroke-width: 2.13622;
}
.l6{
 fill: #00ccee; fill-opacity: 0.5;
  stroke: #00ccee;
  stroke-linecap:round;
  stroke-linejoin:round;
  stroke-width: 2.13622;
}
.l7{
 fill: #ff0000; fill-opacity: 0.5;
  stroke: #ff0000;
  stroke-linecap:round;
  stroke-linejoin:round;
  stroke-width: 2.13622;
}
.l8{
 fill: #888800; fill-opacity: 0.5;
  stroke: #888800;
  stroke-linecap:round;
  stroke-linejoin:round;
  stroke-width: 2.13622;
}
.l9{
 fill: #00aaaa; fill-opacity: 0.5;
  stroke: #00aaaa;
  stroke-linecap:round;
  stroke-linejoin:round;
  stroke-width: 2.13622;
}
.l10{
 fill: #880088;
  stroke: #880088;
  stroke-linecap:round;
  stroke-linejoin:round;
  stroke-width: 2.13622;
}
.l11{
 fill: #00ff00; fill-opacity: 0.5;
  stroke: #00ff00;
  stroke-linecap:round;
  stroke-linejoin:round;
  stroke-width: 2.13622;
}
.l12{
 fill: #0000cc; fill-opacity: 0.5;
  stroke: #0000cc;
  stroke-linecap:round;
  stroke-linejoin:round;
  stroke-width: 2.13622;
}
.l13{
 fill: #666600; fill-opacity: 0.5;
  stroke: #666600;
  stroke-linecap:round;
  stroke-linejoin:round;
  stroke-width: 2.13622;
}
.l14{
  fill: none;
  stroke: #557755;
  stroke-linecap:round;
  stroke-linejoin:round;
  stroke-width: 2.13622;
}
.l15{
 fill: #aa2222; fill-opacity: 0.5;
  stroke: #aa2222;
  stroke-linecap:round;
  stroke-linejoin:round;
  stroke-width: 2.13622;
}
.l16{
 fill: #7ccc40; fill-opacity: 0.5;
  stroke: #7ccc40;
  stroke-linecap:round;
  stroke-linejoin:round;
  stroke-width: 2.13622;
}
.l17{
  fill: none;
  stroke: #00ffcc;
  stroke-linecap:round;
  stroke-linejoin:round;
  stroke-width: 2.13622;
}
.l18{
 fill: #ce0097; fill-opacity: 0.5;
  stroke: #ce0097;
  stroke-linecap:round;
  stroke-linejoin:round;
  stroke-width: 2.13622;
}
.l19{
  fill: none;
  stroke: #d2d46b;
  stroke-linecap:round;
  stroke-linejoin:round;
  stroke-width: 2.13622;
}
.l20{
  fill: none;
  stroke: #ef6158;
  stroke-linecap:round;
  stroke-linejoin:round;
  stroke-width: 2.13622;
}
.l21{
  fill: none;
  stroke: #fdb200;
  stroke-linecap:round;
  stroke-linejoin:round;
  stroke-width: 2.13622;
}
text {font-family: Sans-Serif;}
</style>
<rect class="l0" x="0" y="0" width="967" height="538"/>
<text fill="#0044ee"  xml:space="preserve" font-size="33.9422" transform="translate(766.795, 116.489)" >0</text>
<text fill="#0044ee"  xml:space="preserve" font-size="33.9422" transform="translate(-4.61811, 235.168)" >0</text>
<text fill="#0044ee"  xml:space="preserve" font-size="33.9422" transform="translate(461.428, 254.948)" >0</text>
<text fill="#0044ee"  xml:space="preserve" font-size="33.9422" transform="translate(608.556, 254.948)" >0</text>
<text fill="#0044ee"  xml:space="preserve" font-size="33.9422" transform="translate(187.52, 254.948)" >PLUS</text>
<text fill="#0044ee"  xml:space="preserve" font-size="33.9422" transform="translate(817.465, 254.948)" >MINUS</text>
<text fill="#0044ee"  xml:space="preserve" font-size="33.9422" transform="translate(-34.6181, 413.186)" >GN</text>
<text fill="#222222"  xml:space="preserve" font-size="20.571" transform="translate(520.767, 478.928)" >5u/2u/1</text>
<text fill="#222222"  xml:space="preserve" font-size="20.571" transform="translate(520.767, 530.85)" >m1</text>
<text fill="#222222"  xml:space="preserve" font-size="15.4283" transform="translate(555.382, 456.951)" >D</text>
<text fill="#222222"  xml:space="preserve" font-size="20.571" transform="translate(-23.0585, 478.928)" >5u/2u/1</text>
<text fill="#222222"  xml:space="preserve" font-size="20.571" transform="translate(22.9415, 530.85)" >m3</text>
<text fill="#222222"  xml:space="preserve" font-size="15.4283" transform="translate(10.3268, 456.951)" >D</text>
<text fill="#222222"  xml:space="preserve" font-size="20.571" transform="translate(70.7764, 278.658)" >IBIAS</text>
<text fill="#222222"  xml:space="preserve" font-size="20.571" transform="translate(70.7764, 301.658)" >100u</text>
<text fill="#222222"  xml:space="preserve" font-size="20.571" transform="translate(382.309, 221.791)" >10u/1u/1</text>
<text fill="#222222"  xml:space="preserve" font-size="20.571" transform="translate(382.309, 273.713)" >m4</text>
<text fill="#222222"  xml:space="preserve" font-size="15.4283" transform="translate(416.923, 199.814)" >D</text>
<text fill="#222222"  xml:space="preserve" font-size="20.571" transform="translate(616.676, 221.791)" >10u/1u/1</text>
<text fill="#222222"  xml:space="preserve" font-size="20.571" transform="translate(675.676, 273.713)" >m5</text>
<text fill="#222222"  xml:space="preserve" font-size="15.4283" transform="translate(663.061, 199.814)" >D</text>
<text fill="#666600"  xml:space="preserve" font-size="20.571" transform="translate(779.74, 9.15758)" >1</text>
<text fill="#666600"  xml:space="preserve" font-size="20.571" transform="translate(779.74, 93.2218)" >2</text>
<text fill="#222222"  xml:space="preserve" font-size="20.571" transform="translate(832.3, 23.9924)" >CL</text>
<text fill="#222222"  xml:space="preserve" font-size="20.571" transform="translate(832.3, 48.7172)" >2p</text>
<text fill="#222222"  xml:space="preserve" font-size="20.571" transform="translate(832.3, 73.442)" >m=1</text>
<text fill="#aa2222"  xml:space="preserve" font-size="20.571" transform="translate(253.74, 441.841)" >1.31</text>
<text fill="#222222"  xml:space="preserve" font-size="20.571" transform="translate(436.703, 103.112)" >Vmeas</text>
<text fill="#222222"  xml:space="preserve" font-size="20.571" transform="translate(570.281, 103.112)" >Vmeas1</text>
<text fill="#222222"  xml:space="preserve" font-size="20.571" transform="translate(431.822, 360.249)" >Vmeas2</text>
<path class="l4" d="M515.822 437.998L515.822 538"/>
<path class="l4" d="M515.822 457.777L545.492 457.777"/>
<path class="l4" d="M545.492 437.998L545.492 457.777"/>
<path class="l4" d="M515.822 536.897L545.492 536.897"/>
<path class="l4" d="M545.492 536.897L545.492 538"/>
<path class="l4" d="M496.043 467.667L496.043 527.007"/>
<path class="l4" d="M496.043 497.337L496.043 507.227"/>
<path class="l4" d="M466.373 497.337L481.208 497.337"/>
<path class="l4" d="M466.373 497.337L496.043 497.337"/>
<path class="l4" d="M525.712 497.337L545.492 497.337"/>
<path class="l4" d="M515.822 487.447L525.712 497.337"/>
<path class="l4" d="M515.822 507.227L525.712 497.337"/>
<path class="l4" d="M60.8865 437.998L60.8865 538"/>
<path class="l4" d="M31.2168 457.777L60.8865 457.777"/>
<path class="l4" d="M31.2168 437.998L31.2168 457.777"/>
<path class="l4" d="M31.2168 536.897L60.8865 536.897"/>
<path class="l4" d="M31.2168 536.897L31.2168 538"/>
<path class="l4" d="M80.6663 467.667L80.6663 527.007"/>
<path class="l4" d="M80.6663 497.337L80.6663 507.227"/>
<path class="l4" d="M95.5012 497.337L110.336 497.337"/>
<path class="l4" d="M80.6663 497.337L110.336 497.337"/>
<path class="l4" d="M31.2168 497.337L50.9966 497.337"/>
<path class="l4" d="M50.9966 497.337L60.8865 487.447"/>
<path class="l4" d="M50.9966 497.337L60.8865 507.227"/>
<path class="l4" d="M31.2168 220.42L31.2168 250.089"/>
<path class="l4" d="M31.2168 309.429L31.2168 339.098"/>
<path class="l4" d="M36.1617 235.254L46.0516 235.254"/>
<path class="l4" d="M41.1067 230.309L41.1067 240.199"/>
<path class="l4" d="M31.2168 264.924L31.2168 284.704L36.1617 284.704L31.2168 299.539L26.2718 284.704L31.2168 284.704L31.2168 264.924"/>
<circle class="l4" cx="31.2168" cy="279.759" r="29.6697" style="fill:none;"/>
<path class="l4" d="M377.364 180.86L377.364 299.539"/>
<path class="l4" d="M377.364 200.64L407.033 200.64"/>
<path class="l4" d="M407.033 180.86L407.033 200.64"/>
<path class="l4" d="M377.364 279.759L407.033 279.759"/>
<path class="l4" d="M407.033 279.759L407.033 299.539"/>
<path class="l4" d="M357.584 210.53L357.584 269.869"/>
<path class="l4" d="M357.584 240.199L357.584 250.089"/>
<path class="l4" d="M327.914 240.199L342.749 240.199"/>
<path class="l4" d="M327.914 240.199L357.584 240.199"/>
<path class="l4" d="M387.254 240.199L407.033 240.199"/>
<path class="l4" d="M377.364 230.309L387.254 240.199"/>
<path class="l4" d="M377.364 250.089L387.254 240.199"/>
<path class="l4" d="M713.621 180.86L713.621 299.539"/>
<path class="l4" d="M683.951 200.64L713.621 200.64"/>
<path class="l4" d="M683.951 180.86L683.951 200.64"/>
<path class="l4" d="M683.951 279.759L713.621 279.759"/>
<path class="l4" d="M683.951 279.759L683.951 299.539"/>
<path class="l4" d="M733.401 210.53L733.401 269.869"/>
<path class="l4" d="M733.401 240.199L733.401 250.089"/>
<path class="l4" d="M748.235 240.199L763.07 240.199"/>
<path class="l4" d="M733.401 240.199L763.07 240.199"/>
<path class="l4" d="M683.951 240.199L703.731 240.199"/>
<path class="l4" d="M703.731 240.199L713.621 230.309"/>
<path class="l4" d="M703.731 240.199L713.621 250.089"/>
<path class="l4" d="M802.63 52.291L802.63 101.741"/>
<path class="l4" d="M802.63 0L802.63 32.5112"/>
<path class="l4" d="M782.85 32.5112L822.41 32.5112"/>
<path class="l4" d="M782.85 52.291L822.41 52.291"/>
<path class="l4" d="M812.52 0L812.52 2.84148"/>
<path class="l4" d="M407.033 62.181L407.033 180.86"/>
<path class="l4" d="M392.199 121.52L407.033 141.3"/>
<path class="l4" d="M407.033 141.3L421.868 121.52"/>
<path class="l4" d="M683.951 62.181L683.951 180.86"/>
<path class="l4" d="M683.951 141.3L698.786 121.52"/>
<path class="l4" d="M669.116 121.52L683.951 141.3"/>
<path class="l4" d="M545.492 319.319L545.492 437.998"/>
<path class="l4" d="M545.492 398.438L560.327 378.658"/>
<path class="l4" d="M530.657 378.658L545.492 398.438"/>
<path class="l5" d="M800.157 99.2681L805.102 99.2681L805.102 104.213L800.157 104.213L800.157 99.2681z"/>
<path class="l5" d="M540.547 433.053L550.437 433.053L550.437 442.943L540.547 442.943L540.547 433.053z"/>
<path class="l5" d="M461.428 492.392L471.318 492.392L471.318 502.282L461.428 502.282L461.428 492.392z"/>
<path class="l5" d="M540.547 492.392L550.437 492.392L550.437 502.282L540.547 502.282L540.547 492.392z"/>
<path class="l5" d="M26.2718 433.053L36.1617 433.053L36.1617 442.943L26.2718 442.943L26.2718 433.053z"/>
<path class="l5" d="M105.391 492.392L115.281 492.392L115.281 502.282L105.391 502.282L105.391 492.392z"/>
<path class="l5" d="M26.2718 492.392L36.1617 492.392L36.1617 502.282L26.2718 502.282L26.2718 492.392z"/>
<path class="l5" d="M26.2718 215.475L36.1617 215.475L36.1617 225.365L26.2718 225.365L26.2718 215.475z"/>
<path class="l5" d="M26.2718 334.154L36.1617 334.154L36.1617 344.043L26.2718 344.043L26.2718 334.154z"/>
<path class="l5" d="M28.7443 217.947L33.6892 217.947L33.6892 222.892L28.7443 222.892L28.7443 217.947z"/>
<path class="l5" d="M402.088 175.915L411.978 175.915L411.978 185.805L402.088 185.805L402.088 175.915z"/>
<path class="l5" d="M322.969 235.254L332.859 235.254L332.859 245.144L322.969 245.144L322.969 235.254z"/>
<path class="l5" d="M402.088 294.594L411.978 294.594L411.978 304.484L402.088 304.484L402.088 294.594z"/>
<path class="l5" d="M402.088 235.254L411.978 235.254L411.978 245.144L402.088 245.144L402.088 235.254z"/>
<path class="l5" d="M444.121 237.727L449.066 237.727L449.066 242.672L444.121 242.672L444.121 237.727z"/>
<path class="l5" d="M679.006 175.915L688.896 175.915L688.896 185.805L679.006 185.805L679.006 175.915z"/>
<path class="l5" d="M758.125 235.254L768.015 235.254L768.015 245.144L758.125 245.144L758.125 235.254z"/>
<path class="l5" d="M679.006 294.594L688.896 294.594L688.896 304.484L679.006 304.484L679.006 294.594z"/>
<path class="l5" d="M679.006 235.254L688.896 235.254L688.896 245.144L679.006 245.144L679.006 235.254z"/>
<path class="l5" d="M641.919 237.727L646.864 237.727L646.864 242.672L641.919 242.672L641.919 237.727z"/>
<path class="l5" d="M285.882 237.727L290.827 237.727L290.827 242.672L285.882 242.672L285.882 237.727z"/>
<path class="l5" d="M800.157 237.727L805.102 237.727L805.102 242.672L800.157 242.672L800.157 237.727z"/>
<path class="l5" d="M28.7443 395.965L33.6892 395.965L33.6892 400.91L28.7443 400.91L28.7443 395.965z"/>
<path class="l5" d="M797.685 96.7956L807.575 96.7956L807.575 106.686L797.685 106.686L797.685 96.7956z"/>
<path class="l5" d="M228.088 496.41L229.942 496.41L229.942 498.264L228.088 498.264L228.088 496.41z"/>
<path class="l5" d="M402.088 57.236L411.978 57.236L411.978 67.1259L402.088 67.1259L402.088 57.236z"/>
<path class="l5" d="M402.088 175.915L411.978 175.915L411.978 185.805L402.088 185.805L402.088 175.915z"/>
<path class="l5" d="M679.006 57.236L688.896 57.236L688.896 67.1259L679.006 67.1259L679.006 57.236z"/>
<path class="l5" d="M679.006 175.915L688.896 175.915L688.896 185.805L679.006 185.805L679.006 175.915z"/>
<path class="l5" d="M540.547 314.374L550.437 314.374L550.437 324.264L540.547 324.264L540.547 314.374z"/>
<path class="l5" d="M540.547 433.053L550.437 433.053L550.437 442.943L540.547 442.943L540.547 433.053z"/>
<path class="l15" d="M236.432 480.03L248.795 465.195"/>
<path class="l15" d="M229.015 497.337L236.432 480.03"/>
<path class="l15" d="M248.795 442.943L248.795 470.14"/>
<path class="l15" d="M243.85 465.195L285.882 465.195"/>
<path class="l15" d="M253.74 457.777L263.63 457.777"/>
<path class="l15" d="M263.63 450.36L263.63 457.777"/>
<path class="l15" d="M263.63 450.36L271.047 450.36"/>
<path class="l15" d="M271.047 450.36L271.047 457.777"/>
<path class="l15" d="M271.047 457.777L278.465 457.777"/>
<path class="l15" d="M278.465 450.36L278.465 457.777"/>
<path class="l15" d="M278.465 450.36L284.028 450.36"/>
<path class="l1" d="M31.2168 339.098L31.2168 437.998"/>
<path class="l1" d="M31.2168 437.998L110.336 437.998"/>
<path class="l1" d="M110.336 437.998L110.336 497.337"/>
<path class="l1" d="M110.336 497.337L466.373 497.337"/>
<path class="l1" d="M407.033 240.199L446.593 240.199"/>
<path class="l1" d="M644.391 240.199L683.951 240.199"/>
<path class="l1" d="M407.033 299.539L683.951 299.539"/>
<path class="l1" d="M288.354 240.199L327.914 240.199"/>
<path class="l1" d="M763.07 240.199L802.63 240.199"/>
<path class="l1" d="M585.052 497.337L585.052 538"/>
<path class="l1" d="M545.492 497.337L585.052 497.337"/>
<path class="l1" d="M0 497.337L31.2168 497.337"/>
<path class="l1" d="M683.951 0L683.951 62.181"/>
<path class="l1" d="M407.033 0L407.033 62.181"/>
<path class="l1" d="M545.492 299.539L545.492 319.319"/>
<circle class="l1" cx="545.492" cy="299.539" r="7.91193"/>
</svg>
