<svg xmlns="http://www.w3.org/2000/svg" width="967" height="538" version="1.1">
<style type="text/css">
.l0{
 fill: #ffffff;
  stroke: #ffffff;
  stroke-linecap:round;
  stroke-linejoin:round;
  stroke-width: 0.858499;
  fill-opacity: 0;
  stroke-opacity: 0;
}
.l1{
 fill: #0044ee;
  stroke: #0044ee;
  stroke-linecap:round;
  stroke-linejoin:round;
  stroke-width: 0.858499;
}
.l2{
  fill: none;
  stroke: #aaaaaa;
  stroke-linecap:round;
  stroke-linejoin:round;
  stroke-width: 0.858499;
}
.l3{
 fill: #222222; fill-opacity: 0.5;
  stroke: #222222;
  stroke-linecap:round;
  stroke-linejoin:round;
  stroke-width: 0.858499;
}
.l4{
 fill: #229900;
  stroke: #229900;
  stroke-linecap:round;
  stroke-linejoin:round;
  stroke-width: 0.858499;
}
.l5{
 fill: #bb2200;
  stroke: #bb2200;
  stroke-linecap:round;
  stroke-linejoin:round;
  stroke-width: 0.858499;
}
.l6{
 fill: #00ccee; fill-opacity: 0.5;
  stroke: #00ccee;
  stroke-linecap:round;
  stroke-linejoin:round;
  stroke-width: 0.858499;
}
.l7{
 fill: #ff0000; fill-opacity: 0.5;
  stroke: #ff0000;
  stroke-linecap:round;
  stroke-linejoin:round;
  stroke-width: 0.858499;
}
.l8{
 fill: #888800; fill-opacity: 0.5;
  stroke: #888800;
  stroke-linecap:round;
  stroke-linejoin:round;
  stroke-width: 0.858499;
}
.l9{
 fill: #00aaaa; fill-opacity: 0.5;
  stroke: #00aaaa;
  stroke-linecap:round;
  stroke-linejoin:round;
  stroke-width: 0.858499;
}
.l10{
 fill: #880088;
  stroke: #880088;
  stroke-linecap:round;
  stroke-linejoin:round;
  stroke-width: 0.858499;
}
.l11{
 fill: #00ff00; fill-opacity: 0.5;
  stroke: #00ff00;
  stroke-linecap:round;
  stroke-linejoin:round;
  stroke-width: 0.858499;
}
.l12{
 fill: #0000cc; fill-opacity: 0.5;
  stroke: #0000cc;
  stroke-linecap:round;
  stroke-linejoin:round;
  stroke-width: 0.858499;
}
.l13{
 fill: #666600; fill-opacity: 0.5;
  stroke: #666600;
  stroke-linecap:round;
  stroke-linejoin:round;
  stroke-width: 0.858499;
}
.l14{
  fill: none;
  stroke: #557755;
  stroke-linecap:round;
  stroke-linejoin:round;
  stroke-width: 0.858499;
}
.l15{
 fill: #aa2222; fill-opacity: 0.5;
  stroke: #aa2222;
  stroke-linecap:round;
  stroke-linejoin:round;
  stroke-width: 0.858499;
}
.l16{
 fill: #7ccc40; fill-opacity: 0.5;
  stroke: #7ccc40;
  stroke-linecap:round;
  stroke-linejoin:round;
  stroke-width: 0.858499;
}
.l17{
  fill: none;
  stroke: #00ffcc;
  stroke-linecap:round;
  stroke-linejoin:round;
  stroke-width: 0.858499;
}
.l18{
 fill: #ce0097; fill-opacity: 0.5;
  stroke: #ce0097;
  stroke-linecap:round;
  stroke-linejoin:round;
  stroke-width: 0.858499;
}
.l19{
  fill: none;
  stroke: #d2d46b;
  stroke-linecap:round;
  stroke-linejoin:round;
  stroke-width: 0.858499;
}
.l20{
  fill: none;
  stroke: #ef6158;
  stroke-linecap:round;
  stroke-linejoin:round;
  stroke-width: 0.858499;
}
.l21{
  fill: none;
  stroke: #fdb200;
  stroke-linecap:round;
  stroke-linejoin:round;
  stroke-width: 0.858499;
}
text {font-family: Sans-Serif;}
</style>
<rect class="l0" x="0" y="0" width="967" height="538"/>
<text fill="#222222"  xml:space="preserve" font-size="16.5341" transform="translate(213.232, 23.941)" >CMOS DIFFERENTIAL AMPLIFIER</text>
<text fill="#222222"  xml:space="preserve" font-size="16.5341" transform="translate(213.232, 41.941)" >EXAMPLE</text>
<text fill="#0044ee"  xml:space="preserve" font-size="13.6406" transform="translate(516.233, 245.378)" >0</text>
<text fill="#0044ee"  xml:space="preserve" font-size="13.6406" transform="translate(23.3904, 356.665)" >0</text>
<text fill="#0044ee"  xml:space="preserve" font-size="13.6406" transform="translate(412.895, 452.054)" >0</text>
<text fill="#0044ee"  xml:space="preserve" font-size="13.6406" transform="translate(68.1612, 285.123)" >VCC</text>
<text fill="#0044ee"  xml:space="preserve" font-size="13.6406" transform="translate(206.219, 452.054)" >0</text>
<text fill="#0044ee"  xml:space="preserve" font-size="13.6406" transform="translate(206.219, 293.072)" >0</text>
<text fill="#0044ee"  xml:space="preserve" font-size="13.6406" transform="translate(394.073, 301.022)" >0</text>
<text fill="#0044ee"  xml:space="preserve" font-size="13.6406" transform="translate(452.64, 301.022)" >0</text>
<text fill="#0044ee"  xml:space="preserve" font-size="13.6406" transform="translate(529.207, 142.04)" >VCC</text>
<text fill="#0044ee"  xml:space="preserve" font-size="13.6406" transform="translate(297.506, 142.04)" >VCC</text>
<text fill="#0044ee"  xml:space="preserve" font-size="13.6406" transform="translate(392.895, 70.4986)" >VCC</text>
<text fill="#0044ee"  xml:space="preserve" font-size="13.6406" transform="translate(283.557, 301.022)" >PLUS</text>
<text fill="#0044ee"  xml:space="preserve" font-size="13.6406" transform="translate(537.156, 301.022)" >MINUS</text>
<text fill="#0044ee"  xml:space="preserve" font-size="13.6406" transform="translate(600.749, 197.684)" >DIFFOUT</text>
<text fill="#0044ee"  xml:space="preserve" font-size="13.6406" transform="translate(194.219, 364.614)" >GN</text>
<text fill="#0044ee"  xml:space="preserve" font-size="13.6406" transform="translate(23.3904, 253.327)" >0</text>
<text fill="#0044ee"  xml:space="preserve" font-size="13.6406" transform="translate(68.1612, 181.786)" >PLUS</text>
<text fill="#0044ee"  xml:space="preserve" font-size="13.6406" transform="translate(23.3904, 134.091)" >0</text>
<text fill="#0044ee"  xml:space="preserve" font-size="13.6406" transform="translate(68.1612, 62.5495)" >MINUS</text>
<text fill="#0044ee"  xml:space="preserve" font-size="13.6406" transform="translate(355.251, 189.735)" >G</text>
<text fill="#222222"  xml:space="preserve" font-size="16.5341" transform="translate(328.493, 520.758)" >cmos_example.sch</text>
<text fill="#222222"  xml:space="preserve" font-size="16.5341" transform="translate(328.493, 496.911)" >Stefan Schippers</text>
<text fill="#222222"  xml:space="preserve" font-size="16.5341" transform="translate(764.495, 496.911)" >2020-12-28  01:05:52</text>
<text fill="#222222"  xml:space="preserve" font-size="41.3352" transform="translate(145.665, 519.43)" >SCHEM</text>
<text fill="#222222"  xml:space="preserve" font-size="8.26703" transform="translate(417.92, 391.034)" >5u/2u/1</text>
<text fill="#222222"  xml:space="preserve" font-size="8.26703" transform="translate(417.92, 411.901)" >m1</text>
<text fill="#222222"  xml:space="preserve" font-size="6.20027" transform="translate(431.831, 382.202)" >D</text>
<text fill="#222222"  xml:space="preserve" font-size="8.26703" transform="translate(473.564, 129.709)" >5u/2u/1</text>
<text fill="#222222"  xml:space="preserve" font-size="8.26703" transform="translate(473.564, 149.581)" >m2</text>
<text fill="#222222"  xml:space="preserve" font-size="6.20027" transform="translate(487.475, 157.641)" >D</text>
<text fill="#222222"  xml:space="preserve" font-size="8.26703" transform="translate(54.2503, 319.493)" >VVCC</text>
<text fill="#222222"  xml:space="preserve" font-size="8.26703" transform="translate(54.2503, 329.429)" >5</text>
<text fill="#222222"  xml:space="preserve" font-size="8.26703" transform="translate(200.117, 391.034)" >5u/2u/1</text>
<text fill="#222222"  xml:space="preserve" font-size="8.26703" transform="translate(218.117, 411.901)" >m3</text>
<text fill="#222222"  xml:space="preserve" font-size="6.20027" transform="translate(212.206, 382.202)" >D</text>
<text fill="#222222"  xml:space="preserve" font-size="8.26703" transform="translate(237.079, 310.55)" >IBIAS</text>
<text fill="#222222"  xml:space="preserve" font-size="8.26703" transform="translate(237.079, 319.55)" >100u</text>
<text fill="#222222"  xml:space="preserve" font-size="8.26703" transform="translate(362.277, 287.696)" >10u/1u/1</text>
<text fill="#222222"  xml:space="preserve" font-size="8.26703" transform="translate(362.277, 308.563)" >m4</text>
<text fill="#222222"  xml:space="preserve" font-size="6.20027" transform="translate(376.188, 278.864)" >D</text>
<text fill="#222222"  xml:space="preserve" font-size="8.26703" transform="translate(457.436, 287.696)" >10u/1u/1</text>
<text fill="#222222"  xml:space="preserve" font-size="8.26703" transform="translate(480.436, 308.563)" >m5</text>
<text fill="#222222"  xml:space="preserve" font-size="6.20027" transform="translate(474.525, 278.864)" >D</text>
<text fill="#222222"  xml:space="preserve" font-size="8.26703" transform="translate(351.149, 129.709)" >5u/2u/1</text>
<text fill="#222222"  xml:space="preserve" font-size="8.26703" transform="translate(369.149, 149.581)" >m6</text>
<text fill="#222222"  xml:space="preserve" font-size="6.20027" transform="translate(363.239, 157.641)" >D</text>
<text fill="#222222"  xml:space="preserve" font-size="8.26703" transform="translate(54.2503, 216.155)" >VPLUS</text>
<text fill="#222222"  xml:space="preserve" font-size="8.26703" transform="translate(54.2503, 226.091)" >2.5 pwl 0 2.4 10n 2.4 10.1n 2.6</text>
<text fill="#222222"  xml:space="preserve" font-size="8.26703" transform="translate(54.2503, 96.9188)" >V1</text>
<text fill="#222222"  xml:space="preserve" font-size="8.26703" transform="translate(54.2503, 106.855)" >2.5</text>
<text fill="#666600"  xml:space="preserve" font-size="8.26703" transform="translate(522.22, 202.244)" >1</text>
<text fill="#666600"  xml:space="preserve" font-size="8.26703" transform="translate(522.22, 236.028)" >2</text>
<text fill="#222222"  xml:space="preserve" font-size="8.26703" transform="translate(543.118, 208.206)" >CL</text>
<text fill="#222222"  xml:space="preserve" font-size="8.26703" transform="translate(543.118, 218.142)" >2p</text>
<text fill="#222222"  xml:space="preserve" font-size="8.26703" transform="translate(543.118, 228.078)" >m=1</text>
<text fill="#222222"  xml:space="preserve" font-size="12.4005" transform="translate(638.507, 365.972)" >STIMULI</text>
<text fill="#222222"  xml:space="preserve" font-size="16.5341" transform="translate(539.143, 483.436)" >Backannotate</text>
<text fill="#aa2222"  xml:space="preserve" font-size="8.26703" transform="translate(477.538, 58.1671)" >5</text>
<text fill="#aa2222"  xml:space="preserve" font-size="8.26703" transform="translate(572.927, 169.454)" >3.321</text>
<text fill="#aa2222"  xml:space="preserve" font-size="8.26703" transform="translate(382.149, 169.454)" >3.321</text>
<text fill="#aa2222"  xml:space="preserve" font-size="8.26703" transform="translate(310.608, 376.13)" >1.31</text>
<text fill="#aa2222"  xml:space="preserve" font-size="8.26703" transform="translate(380.162, 256.894)" >5.0052e-05</text>
<text fill="#222222"  xml:space="preserve" font-size="8.26703" transform="translate(384.137, 240.002)" >Vmeas</text>
<text fill="#aa2222"  xml:space="preserve" font-size="8.26703" transform="translate(429.551, 256.894)" >5.0052e-05</text>
<text fill="#222222"  xml:space="preserve" font-size="8.26703" transform="translate(438.576, 240.002)" >Vmeas1</text>
<text fill="#aa2222"  xml:space="preserve" font-size="8.26703" transform="translate(373.907, 360.232)" >1.0010e-04</text>
<text fill="#222222"  xml:space="preserve" font-size="8.26703" transform="translate(382.933, 343.34)" >Vmeas2</text>
<path class="l4" d="M415.933 374.585L415.933 422.28"/>
<path class="l4" d="M415.933 382.534L427.857 382.534"/>
<path class="l4" d="M427.857 374.585L427.857 382.534"/>
<path class="l4" d="M415.933 414.331L427.857 414.331"/>
<path class="l4" d="M427.857 414.331L427.857 422.28"/>
<path class="l4" d="M407.984 386.509L407.984 410.356"/>
<path class="l4" d="M407.984 398.432L407.984 402.407"/>
<path class="l4" d="M396.06 398.432L402.022 398.432"/>
<path class="l4" d="M396.06 398.432L407.984 398.432"/>
<path class="l4" d="M419.907 398.432L427.857 398.432"/>
<path class="l4" d="M415.933 394.458L419.907 398.432"/>
<path class="l4" d="M415.933 402.407L419.907 398.432"/>
<path class="l4" d="M471.576 112.266L471.576 159.96"/>
<path class="l4" d="M471.576 152.011L483.5 152.011"/>
<path class="l4" d="M483.5 152.011L483.5 159.96"/>
<path class="l4" d="M471.576 120.215L483.5 120.215"/>
<path class="l4" d="M483.5 112.266L483.5 120.215"/>
<path class="l4" d="M463.627 124.19L463.627 148.037"/>
<path class="l4" d="M463.627 132.139L463.627 136.113"/>
<path class="l4" d="M461.64 132.139L463.627 134.126"/>
<path class="l4" d="M459.653 132.139L461.64 132.139"/>
<path class="l4" d="M457.666 134.126L459.653 132.139"/>
<path class="l4" d="M457.666 134.126L457.666 138.1"/>
<path class="l4" d="M457.666 138.1L459.653 140.088"/>
<path class="l4" d="M459.653 140.088L461.64 140.088"/>
<path class="l4" d="M461.64 140.088L463.627 138.1"/>
<path class="l4" d="M451.704 136.113L457.666 136.113"/>
<path class="l4" d="M475.551 136.113L483.5 136.113"/>
<path class="l4" d="M471.576 132.139L475.551 136.113"/>
<path class="l4" d="M471.576 140.088L475.551 136.113"/>
<path class="l4" d="M40.3395 309.005L44.314 309.005"/>
<path class="l4" d="M42.3267 307.018L42.3267 310.993"/>
<path class="l4" d="M38.3522 303.044L38.3522 350.738"/>
<circle class="l4" cx="38.3522" cy="326.891" r="11.9236" style="fill:none;"/>
<path class="l4" d="M233.104 374.585L233.104 422.28"/>
<path class="l4" d="M221.181 382.534L233.104 382.534"/>
<path class="l4" d="M221.181 374.585L221.181 382.534"/>
<path class="l4" d="M221.181 414.331L233.104 414.331"/>
<path class="l4" d="M221.181 414.331L221.181 422.28"/>
<path class="l4" d="M241.053 386.509L241.053 410.356"/>
<path class="l4" d="M241.053 398.432L241.053 402.407"/>
<path class="l4" d="M247.015 398.432L252.977 398.432"/>
<path class="l4" d="M241.053 398.432L252.977 398.432"/>
<path class="l4" d="M221.181 398.432L229.13 398.432"/>
<path class="l4" d="M229.13 398.432L233.104 394.458"/>
<path class="l4" d="M229.13 398.432L233.104 402.407"/>
<path class="l4" d="M221.181 287.145L221.181 299.069"/>
<path class="l4" d="M221.181 322.916L221.181 334.84"/>
<path class="l4" d="M223.168 293.107L227.143 293.107"/>
<path class="l4" d="M225.155 291.12L225.155 295.094"/>
<path class="l4" d="M221.181 305.031L221.181 312.98L223.168 312.98L221.181 318.942L219.193 312.98L221.181 312.98L221.181 305.031"/>
<circle class="l4" cx="221.181" cy="310.993" r="11.9236" style="fill:none;"/>
<path class="l4" d="M360.289 271.247L360.289 318.942"/>
<path class="l4" d="M360.289 279.196L372.213 279.196"/>
<path class="l4" d="M372.213 271.247L372.213 279.196"/>
<path class="l4" d="M360.289 310.993L372.213 310.993"/>
<path class="l4" d="M372.213 310.993L372.213 318.942"/>
<path class="l4" d="M352.34 283.171L352.34 307.018"/>
<path class="l4" d="M352.34 295.094L352.34 299.069"/>
<path class="l4" d="M340.417 295.094L346.379 295.094"/>
<path class="l4" d="M340.417 295.094L352.34 295.094"/>
<path class="l4" d="M364.264 295.094L372.213 295.094"/>
<path class="l4" d="M360.289 291.12L364.264 295.094"/>
<path class="l4" d="M360.289 299.069L364.264 295.094"/>
<path class="l4" d="M495.424 271.247L495.424 318.942"/>
<path class="l4" d="M483.5 279.196L495.424 279.196"/>
<path class="l4" d="M483.5 271.247L483.5 279.196"/>
<path class="l4" d="M483.5 310.993L495.424 310.993"/>
<path class="l4" d="M483.5 310.993L483.5 318.942"/>
<path class="l4" d="M503.373 283.171L503.373 307.018"/>
<path class="l4" d="M503.373 295.094L503.373 299.069"/>
<path class="l4" d="M509.334 295.094L515.296 295.094"/>
<path class="l4" d="M503.373 295.094L515.296 295.094"/>
<path class="l4" d="M483.5 295.094L491.449 295.094"/>
<path class="l4" d="M491.449 295.094L495.424 291.12"/>
<path class="l4" d="M491.449 295.094L495.424 299.069"/>
<path class="l4" d="M384.137 112.266L384.137 159.96"/>
<path class="l4" d="M372.213 152.011L384.137 152.011"/>
<path class="l4" d="M372.213 152.011L372.213 159.96"/>
<path class="l4" d="M372.213 120.215L384.137 120.215"/>
<path class="l4" d="M372.213 112.266L372.213 120.215"/>
<path class="l4" d="M392.086 124.19L392.086 148.037"/>
<path class="l4" d="M392.086 132.139L392.086 136.113"/>
<path class="l4" d="M392.086 134.126L394.073 132.139"/>
<path class="l4" d="M394.073 132.139L396.06 132.139"/>
<path class="l4" d="M396.06 132.139L398.048 134.126"/>
<path class="l4" d="M398.048 134.126L398.048 138.1"/>
<path class="l4" d="M396.06 140.088L398.048 138.1"/>
<path class="l4" d="M394.073 140.088L396.06 140.088"/>
<path class="l4" d="M392.086 138.1L394.073 140.088"/>
<path class="l4" d="M398.048 136.113L404.009 136.113"/>
<path class="l4" d="M372.213 136.113L380.162 136.113"/>
<path class="l4" d="M380.162 136.113L384.137 132.139"/>
<path class="l4" d="M380.162 136.113L384.137 140.088"/>
<path class="l4" d="M40.3395 205.667L44.314 205.667"/>
<path class="l4" d="M42.3267 203.68L42.3267 207.655"/>
<path class="l4" d="M38.3522 199.706L38.3522 247.4"/>
<circle class="l4" cx="38.3522" cy="223.553" r="11.9236" style="fill:none;"/>
<path class="l4" d="M40.3395 86.4315L44.314 86.4315"/>
<path class="l4" d="M42.3267 84.4442L42.3267 88.4187"/>
<path class="l4" d="M38.3522 80.4697L38.3522 128.164"/>
<circle class="l4" cx="38.3522" cy="104.317" r="11.9236" style="fill:none;"/>
<path class="l4" d="M531.194 219.578L531.194 239.451"/>
<path class="l4" d="M531.194 191.757L531.194 211.629"/>
<path class="l4" d="M523.245 211.629L539.143 211.629"/>
<path class="l4" d="M523.245 219.578L539.143 219.578"/>
<path class="l4" d="M533.182 197.718L537.156 197.718"/>
<path class="l4" d="M535.169 195.731L535.169 199.706"/>
<path class="l4" d="M642.481 398.432L674.278 398.432"/>
<path class="l4" d="M642.481 406.381L658.379 406.381"/>
<path class="l4" d="M642.481 414.331L674.278 414.331"/>
<path class="l4" d="M642.481 422.28L666.329 422.28"/>
<path class="l4" d="M642.481 430.229L666.329 430.229"/>
<path class="l4" d="M642.481 438.178L698.125 438.178"/>
<path class="l4" d="M642.481 446.127L658.379 446.127"/>
<path class="l4" d="M642.481 390.483L682.227 390.483"/>
<path class="l4" d="M642.481 382.534L658.379 382.534"/>
<path class="l4" d="M706.074 382.534L714.023 382.534"/>
<path class="l4" d="M714.023 382.534L714.023 462.025"/>
<path class="l4" d="M642.481 462.025L714.023 462.025"/>
<path class="l4" d="M642.481 454.076L642.481 462.025"/>
<path class="l4" d="M706.074 374.585L706.074 454.076"/>
<path class="l4" d="M634.532 454.076L706.074 454.076"/>
<path class="l4" d="M634.532 374.585L634.532 454.076"/>
<path class="l4" d="M634.532 374.585L706.074 374.585"/>
<path class="l4" d="M531.194 477.923L507.347 467.987L507.347 473.949L483.5 473.949L491.449 477.923L483.5 481.898L507.347 481.898L507.347 487.859L531.194 477.923"/>
<path class="l4" d="M372.213 223.553L372.213 271.247"/>
<path class="l4" d="M366.251 247.4L372.213 255.349"/>
<path class="l4" d="M372.213 255.349L378.175 247.4"/>
<path class="l4" d="M483.5 223.553L483.5 271.247"/>
<path class="l4" d="M483.5 255.349L489.462 247.4"/>
<path class="l4" d="M477.538 247.4L483.5 255.349"/>
<path class="l4" d="M427.857 326.891L427.857 374.585"/>
<path class="l4" d="M427.857 358.687L433.818 350.738"/>
<path class="l4" d="M421.895 350.738L427.857 358.687"/>
<path class="l5" d="M530.201 238.457L532.188 238.457L532.188 240.445L530.201 240.445L530.201 238.457z"/>
<path class="l5" d="M37.3586 349.744L39.3458 349.744L39.3458 351.732L37.3586 351.732L37.3586 349.744z"/>
<path class="l5" d="M145.665 477.923L121.817 501.77L145.665 525.617L129.766 525.617L113.868 509.719L97.9702 525.617L82.0721 525.617L105.919 501.77L82.0721 477.923L97.9702 477.923L113.868 493.821L129.766 477.923L145.665 477.923"/>
<path class="l5" d="M425.869 372.598L429.844 372.598L429.844 376.572L425.869 376.572L425.869 372.598z"/>
<path class="l5" d="M394.073 396.445L398.048 396.445L398.048 400.42L394.073 400.42L394.073 396.445z"/>
<path class="l5" d="M425.869 420.292L429.844 420.292L429.844 424.267L425.869 424.267L425.869 420.292z"/>
<path class="l5" d="M425.869 396.445L429.844 396.445L429.844 400.42L425.869 400.42L425.869 396.445z"/>
<path class="l5" d="M481.513 157.973L485.487 157.973L485.487 161.948L481.513 161.948L481.513 157.973z"/>
<path class="l5" d="M449.716 134.126L453.691 134.126L453.691 138.1L449.716 138.1L449.716 134.126z"/>
<path class="l5" d="M481.513 110.279L485.487 110.279L485.487 114.253L481.513 114.253L481.513 110.279z"/>
<path class="l5" d="M481.513 134.126L485.487 134.126L485.487 138.1L481.513 138.1L481.513 134.126z"/>
<path class="l5" d="M36.3649 301.056L40.3395 301.056L40.3395 305.031L36.3649 305.031L36.3649 301.056z"/>
<path class="l5" d="M36.3649 348.751L40.3395 348.751L40.3395 352.725L36.3649 352.725L36.3649 348.751z"/>
<path class="l5" d="M426.863 445.133L428.85 445.133L428.85 447.12L426.863 447.12L426.863 445.133z"/>
<path class="l5" d="M61.2058 278.203L63.193 278.203L63.193 280.19L61.2058 280.19L61.2058 278.203z"/>
<path class="l5" d="M219.193 372.598L223.168 372.598L223.168 376.572L219.193 376.572L219.193 372.598z"/>
<path class="l5" d="M250.99 396.445L254.964 396.445L254.964 400.42L250.99 400.42L250.99 396.445z"/>
<path class="l5" d="M219.193 420.292L223.168 420.292L223.168 424.267L219.193 424.267L219.193 420.292z"/>
<path class="l5" d="M219.193 396.445L223.168 396.445L223.168 400.42L219.193 400.42L219.193 396.445z"/>
<path class="l5" d="M220.187 445.133L222.174 445.133L222.174 447.12L220.187 447.12L220.187 445.133z"/>
<path class="l5" d="M219.193 285.158L223.168 285.158L223.168 289.133L219.193 289.133L219.193 285.158z"/>
<path class="l5" d="M219.193 332.853L223.168 332.853L223.168 336.827L219.193 336.827L219.193 332.853z"/>
<path class="l5" d="M220.187 286.152L222.174 286.152L222.174 288.139L220.187 288.139L220.187 286.152z"/>
<path class="l5" d="M370.226 269.26L374.2 269.26L374.2 273.235L370.226 273.235L370.226 269.26z"/>
<path class="l5" d="M338.43 293.107L342.404 293.107L342.404 297.082L338.43 297.082L338.43 293.107z"/>
<path class="l5" d="M370.226 316.954L374.2 316.954L374.2 320.929L370.226 320.929L370.226 316.954z"/>
<path class="l5" d="M370.226 293.107L374.2 293.107L374.2 297.082L370.226 297.082L370.226 293.107z"/>
<path class="l5" d="M387.118 294.101L389.105 294.101L389.105 296.088L387.118 296.088L387.118 294.101z"/>
<path class="l5" d="M481.513 269.26L485.487 269.26L485.487 273.235L481.513 273.235L481.513 269.26z"/>
<path class="l5" d="M513.309 293.107L517.284 293.107L517.284 297.082L513.309 297.082L513.309 293.107z"/>
<path class="l5" d="M481.513 316.954L485.487 316.954L485.487 320.929L481.513 320.929L481.513 316.954z"/>
<path class="l5" d="M481.513 293.107L485.487 293.107L485.487 297.082L481.513 297.082L481.513 293.107z"/>
<path class="l5" d="M466.608 294.101L468.595 294.101L468.595 296.088L466.608 296.088L466.608 294.101z"/>
<path class="l5" d="M522.252 135.12L524.239 135.12L524.239 137.107L522.252 137.107L522.252 135.12z"/>
<path class="l5" d="M370.226 157.973L374.2 157.973L374.2 161.948L370.226 161.948L370.226 157.973z"/>
<path class="l5" d="M402.022 134.126L405.997 134.126L405.997 138.1L402.022 138.1L402.022 134.126z"/>
<path class="l5" d="M370.226 110.279L374.2 110.279L374.2 114.253L370.226 114.253L370.226 110.279z"/>
<path class="l5" d="M370.226 134.126L374.2 134.126L374.2 138.1L370.226 138.1L370.226 134.126z"/>
<path class="l5" d="M331.474 135.12L333.461 135.12L333.461 137.107L331.474 137.107L331.474 135.12z"/>
<path class="l5" d="M426.863 63.5779L428.85 63.5779L428.85 65.5652L426.863 65.5652L426.863 63.5779z"/>
<path class="l5" d="M323.525 294.101L325.512 294.101L325.512 296.088L323.525 296.088L323.525 294.101z"/>
<path class="l5" d="M530.201 294.101L532.188 294.101L532.188 296.088L530.201 296.088L530.201 294.101z"/>
<path class="l5" d="M593.793 190.763L595.781 190.763L595.781 192.75L593.793 192.75L593.793 190.763z"/>
<path class="l5" d="M220.187 357.693L222.174 357.693L222.174 359.681L220.187 359.681L220.187 357.693z"/>
<path class="l5" d="M37.3586 246.406L39.3458 246.406L39.3458 248.394L37.3586 248.394L37.3586 246.406z"/>
<path class="l5" d="M36.3649 197.718L40.3395 197.718L40.3395 201.693L36.3649 201.693L36.3649 197.718z"/>
<path class="l5" d="M36.3649 245.413L40.3395 245.413L40.3395 249.387L36.3649 249.387L36.3649 245.413z"/>
<path class="l5" d="M61.2058 174.865L63.193 174.865L63.193 176.852L61.2058 176.852L61.2058 174.865z"/>
<path class="l5" d="M37.3586 127.17L39.3458 127.17L39.3458 129.158L37.3586 129.158L37.3586 127.17z"/>
<path class="l5" d="M36.3649 78.4824L40.3395 78.4824L40.3395 82.4569L36.3649 82.4569L36.3649 78.4824z"/>
<path class="l5" d="M36.3649 126.177L40.3395 126.177L40.3395 130.151L36.3649 130.151L36.3649 126.177z"/>
<path class="l5" d="M61.2058 55.6288L63.193 55.6288L63.193 57.6161L61.2058 57.6161L61.2058 55.6288z"/>
<path class="l5" d="M529.207 189.769L533.182 189.769L533.182 193.744L529.207 193.744L529.207 189.769z"/>
<path class="l5" d="M529.207 237.464L533.182 237.464L533.182 241.438L529.207 241.438L529.207 237.464z"/>
<path class="l5" d="M371.219 182.814L373.207 182.814L373.207 184.801L371.219 184.801L371.219 182.814z"/>
<path class="l5" d="M467.229 80.0971L467.974 80.0971L467.974 80.8423L467.229 80.8423L467.229 80.0971z"/>
<path class="l5" d="M562.618 191.384L563.363 191.384L563.363 192.129L562.618 192.129L562.618 191.384z"/>
<path class="l5" d="M371.84 191.384L372.586 191.384L372.586 192.129L371.84 192.129L371.84 191.384z"/>
<path class="l5" d="M300.299 398.06L301.044 398.06L301.044 398.805L300.299 398.805L300.299 398.06z"/>
<path class="l5" d="M370.226 221.566L374.2 221.566L374.2 225.54L370.226 225.54L370.226 221.566z"/>
<path class="l5" d="M370.226 269.26L374.2 269.26L374.2 273.235L370.226 273.235L370.226 269.26z"/>
<path class="l5" d="M481.513 221.566L485.487 221.566L485.487 225.54L481.513 225.54L481.513 221.566z"/>
<path class="l5" d="M481.513 269.26L485.487 269.26L485.487 273.235L481.513 273.235L481.513 269.26z"/>
<path class="l5" d="M425.869 324.904L429.844 324.904L429.844 328.878L425.869 328.878L425.869 324.904z"/>
<path class="l5" d="M425.869 372.598L429.844 372.598L429.844 376.572L425.869 376.572L425.869 372.598z"/>
<path class="l6" d="M320.544 501.77L952.495 501.77"/>
<path class="l6" d="M14.505 501.77L66.1739 501.77"/>
<path class="l15" d="M470.583 73.5142L475.551 67.5524"/>
<path class="l15" d="M467.602 80.4697L470.583 73.5142"/>
<path class="l15" d="M475.551 58.6097L475.551 69.5397"/>
<path class="l15" d="M473.564 67.5524L490.455 67.5524"/>
<path class="l15" d="M477.538 64.5715L481.513 64.5715"/>
<path class="l15" d="M481.513 61.5906L481.513 64.5715"/>
<path class="l15" d="M481.513 61.5906L484.494 61.5906"/>
<path class="l15" d="M484.494 61.5906L484.494 64.5715"/>
<path class="l15" d="M484.494 64.5715L487.475 64.5715"/>
<path class="l15" d="M487.475 61.5906L487.475 64.5715"/>
<path class="l15" d="M487.475 61.5906L489.71 61.5906"/>
<path class="l15" d="M565.972 184.801L570.94 178.839"/>
<path class="l15" d="M562.991 191.757L565.972 184.801"/>
<path class="l15" d="M570.94 169.897L570.94 180.827"/>
<path class="l15" d="M568.952 178.839L585.844 178.839"/>
<path class="l15" d="M572.927 175.858L576.902 175.858"/>
<path class="l15" d="M576.902 172.878L576.902 175.858"/>
<path class="l15" d="M576.902 172.878L579.882 172.878"/>
<path class="l15" d="M579.882 172.878L579.882 175.858"/>
<path class="l15" d="M579.882 175.858L582.863 175.858"/>
<path class="l15" d="M582.863 172.878L582.863 175.858"/>
<path class="l15" d="M582.863 172.878L585.099 172.878"/>
<path class="l15" d="M375.194 184.801L380.162 178.839"/>
<path class="l15" d="M372.213 191.757L375.194 184.801"/>
<path class="l15" d="M380.162 169.897L380.162 180.827"/>
<path class="l15" d="M378.175 178.839L395.067 178.839"/>
<path class="l15" d="M382.149 175.858L386.124 175.858"/>
<path class="l15" d="M386.124 172.878L386.124 175.858"/>
<path class="l15" d="M386.124 172.878L389.105 172.878"/>
<path class="l15" d="M389.105 172.878L389.105 175.858"/>
<path class="l15" d="M389.105 175.858L392.086 175.858"/>
<path class="l15" d="M392.086 172.878L392.086 175.858"/>
<path class="l15" d="M392.086 172.878L394.321 172.878"/>
<path class="l15" d="M303.652 391.477L308.621 385.515"/>
<path class="l15" d="M300.671 398.432L303.652 391.477"/>
<path class="l15" d="M308.621 376.572L308.621 387.502"/>
<path class="l15" d="M306.633 385.515L323.525 385.515"/>
<path class="l15" d="M310.608 382.534L314.582 382.534"/>
<path class="l15" d="M314.582 379.553L314.582 382.534"/>
<path class="l15" d="M314.582 379.553L317.563 379.553"/>
<path class="l15" d="M317.563 379.553L317.563 382.534"/>
<path class="l15" d="M317.563 382.534L320.544 382.534"/>
<path class="l15" d="M320.544 379.553L320.544 382.534"/>
<path class="l15" d="M320.544 379.553L322.78 379.553"/>
<path class="l1" d="M38.3522 279.196L38.3522 303.044"/>
<path class="l1" d="M38.3522 279.196L62.1994 279.196"/>
<path class="l1" d="M221.181 334.84L221.181 374.585"/>
<path class="l1" d="M221.181 374.585L252.977 374.585"/>
<path class="l1" d="M252.977 374.585L252.977 398.432"/>
<path class="l1" d="M252.977 398.432L396.06 398.432"/>
<path class="l1" d="M372.213 295.094L388.111 295.094"/>
<path class="l1" d="M467.602 295.094L483.5 295.094"/>
<path class="l1" d="M372.213 318.942L483.5 318.942"/>
<path class="l1" d="M324.519 295.094L340.417 295.094"/>
<path class="l1" d="M515.296 295.094L531.194 295.094"/>
<path class="l1" d="M483.5 136.113L523.245 136.113"/>
<path class="l1" d="M332.468 136.113L372.213 136.113"/>
<path class="l1" d="M404.009 136.113L451.704 136.113"/>
<path class="l1" d="M404.009 136.113L404.009 159.96"/>
<path class="l1" d="M372.213 159.96L404.009 159.96"/>
<path class="l1" d="M483.5 80.4697L483.5 112.266"/>
<path class="l1" d="M372.213 80.4697L483.5 80.4697"/>
<path class="l1" d="M372.213 80.4697L372.213 112.266"/>
<path class="l1" d="M427.857 64.5715L427.857 80.4697"/>
<path class="l1" d="M483.5 191.757L594.787 191.757"/>
<path class="l1" d="M38.3522 175.858L38.3522 199.706"/>
<path class="l1" d="M38.3522 175.858L62.1994 175.858"/>
<path class="l1" d="M38.3522 56.6225L38.3522 80.4697"/>
<path class="l1" d="M38.3522 56.6225L62.1994 56.6225"/>
<path class="l1" d="M427.857 422.28L427.857 446.127"/>
<path class="l1" d="M427.857 422.28L443.755 422.28"/>
<path class="l1" d="M443.755 398.432L443.755 422.28"/>
<path class="l1" d="M427.857 398.432L443.755 398.432"/>
<path class="l1" d="M221.181 422.28L221.181 446.127"/>
<path class="l1" d="M205.283 422.28L221.181 422.28"/>
<path class="l1" d="M205.283 398.432L205.283 422.28"/>
<path class="l1" d="M205.283 398.432L221.181 398.432"/>
<path class="l1" d="M483.5 159.96L483.5 223.553"/>
<path class="l1" d="M372.213 159.96L372.213 223.553"/>
<path class="l1" d="M427.857 318.942L427.857 326.891"/>
<circle class="l1" cx="483.5" cy="191.757" r="3.17963"/>
<circle class="l1" cx="427.857" cy="80.4697" r="3.17963"/>
<circle class="l1" cx="427.857" cy="318.942" r="3.17963"/>
</svg>
