<svg xmlns="http://www.w3.org/2000/svg" width="967" height="538" version="1.1">
<style type="text/css">
.l0{
 fill: #ffffff;
  stroke: #ffffff;
  stroke-linecap:round;
  stroke-linejoin:round;
  stroke-width: 0.96;
  fill-opacity: 0;
  stroke-opacity: 0;
}
.l1{
 fill: #0044ee;
  stroke: #0044ee;
  stroke-linecap:round;
  stroke-linejoin:round;
  stroke-width: 0.96;
}
.l2{
  fill: none;
  stroke: #aaaaaa;
  stroke-linecap:round;
  stroke-linejoin:round;
  stroke-width: 0.96;
}
.l3{
 fill: #222222; fill-opacity: 0.5;
  stroke: #222222;
  stroke-linecap:round;
  stroke-linejoin:round;
  stroke-width: 0.96;
}
.l4{
 fill: #229900;
  stroke: #229900;
  stroke-linecap:round;
  stroke-linejoin:round;
  stroke-width: 0.96;
}
.l5{
 fill: #bb2200;
  stroke: #bb2200;
  stroke-linecap:round;
  stroke-linejoin:round;
  stroke-width: 0.96;
}
.l6{
 fill: #00ccee; fill-opacity: 0.5;
  stroke: #00ccee;
  stroke-linecap:round;
  stroke-linejoin:round;
  stroke-width: 0.96;
}
.l7{
 fill: #ff0000; fill-opacity: 0.5;
  stroke: #ff0000;
  stroke-linecap:round;
  stroke-linejoin:round;
  stroke-width: 0.96;
}
.l8{
 fill: #888800; fill-opacity: 0.5;
  stroke: #888800;
  stroke-linecap:round;
  stroke-linejoin:round;
  stroke-width: 0.96;
}
.l9{
 fill: #00aaaa; fill-opacity: 0.5;
  stroke: #00aaaa;
  stroke-linecap:round;
  stroke-linejoin:round;
  stroke-width: 0.96;
}
.l10{
 fill: #880088;
  stroke: #880088;
  stroke-linecap:round;
  stroke-linejoin:round;
  stroke-width: 0.96;
}
.l11{
 fill: #00ff00; fill-opacity: 0.5;
  stroke: #00ff00;
  stroke-linecap:round;
  stroke-linejoin:round;
  stroke-width: 0.96;
}
.l12{
 fill: #0000cc; fill-opacity: 0.5;
  stroke: #0000cc;
  stroke-linecap:round;
  stroke-linejoin:round;
  stroke-width: 0.96;
}
.l13{
 fill: #666600; fill-opacity: 0.5;
  stroke: #666600;
  stroke-linecap:round;
  stroke-linejoin:round;
  stroke-width: 0.96;
}
.l14{
  fill: none;
  stroke: #557755;
  stroke-linecap:round;
  stroke-linejoin:round;
  stroke-width: 0.96;
}
.l15{
 fill: #aa2222; fill-opacity: 0.5;
  stroke: #aa2222;
  stroke-linecap:round;
  stroke-linejoin:round;
  stroke-width: 0.96;
}
.l16{
 fill: #7ccc40; fill-opacity: 0.5;
  stroke: #7ccc40;
  stroke-linecap:round;
  stroke-linejoin:round;
  stroke-width: 0.96;
}
.l17{
  fill: none;
  stroke: #00ffcc;
  stroke-linecap:round;
  stroke-linejoin:round;
  stroke-width: 0.96;
}
.l18{
 fill: #ce0097; fill-opacity: 0.5;
  stroke: #ce0097;
  stroke-linecap:round;
  stroke-linejoin:round;
  stroke-width: 0.96;
}
.l19{
  fill: none;
  stroke: #d2d46b;
  stroke-linecap:round;
  stroke-linejoin:round;
  stroke-width: 0.96;
}
.l20{
  fill: none;
  stroke: #ef6158;
  stroke-linecap:round;
  stroke-linejoin:round;
  stroke-width: 0.96;
}
.l21{
  fill: none;
  stroke: #fdb200;
  stroke-linecap:round;
  stroke-linejoin:round;
  stroke-width: 0.96;
}
text {font-family: Sans-Serif;}
</style>
<rect class="l0" x="0" y="0" width="967" height="538"/>
<text fill="#222222"  xml:space="preserve" font-size="16.5341" transform="translate(213.232, 23.8083)" >CMOS DIFFERENTIAL AMPLIFIER</text>
<text fill="#222222"  xml:space="preserve" font-size="16.5341" transform="translate(213.232, 41.8083)" >EXAMPLE</text>
<text fill="#0044ee"  xml:space="preserve" font-size="13.6406" transform="translate(516.233, 269.093)" >0</text>
<text fill="#0044ee"  xml:space="preserve" font-size="13.6406" transform="translate(23.3904, 356.532)" >0</text>
<text fill="#0044ee"  xml:space="preserve" font-size="13.6406" transform="translate(412.895, 451.921)" >0</text>
<text fill="#0044ee"  xml:space="preserve" font-size="13.6406" transform="translate(68.1612, 284.991)" >VCC</text>
<text fill="#0044ee"  xml:space="preserve" font-size="13.6406" transform="translate(206.219, 451.921)" >0</text>
<text fill="#0044ee"  xml:space="preserve" font-size="13.6406" transform="translate(206.219, 292.94)" >0</text>
<text fill="#0044ee"  xml:space="preserve" font-size="13.6406" transform="translate(394.073, 324.736)" >0</text>
<text fill="#0044ee"  xml:space="preserve" font-size="13.6406" transform="translate(452.64, 324.736)" >0</text>
<text fill="#0044ee"  xml:space="preserve" font-size="13.6406" transform="translate(529.207, 165.755)" >VCC</text>
<text fill="#0044ee"  xml:space="preserve" font-size="13.6406" transform="translate(297.506, 165.755)" >VCC</text>
<text fill="#0044ee"  xml:space="preserve" font-size="13.6406" transform="translate(392.895, 94.2131)" >VCC</text>
<text fill="#0044ee"  xml:space="preserve" font-size="13.6406" transform="translate(283.557, 324.736)" >PLUS</text>
<text fill="#0044ee"  xml:space="preserve" font-size="13.6406" transform="translate(537.156, 324.736)" >MINUS</text>
<text fill="#0044ee"  xml:space="preserve" font-size="13.6406" transform="translate(600.749, 221.398)" >DIFFOUT</text>
<text fill="#0044ee"  xml:space="preserve" font-size="13.6406" transform="translate(194.219, 364.481)" >GN</text>
<text fill="#0044ee"  xml:space="preserve" font-size="13.6406" transform="translate(23.3904, 253.194)" >0</text>
<text fill="#0044ee"  xml:space="preserve" font-size="13.6406" transform="translate(68.1612, 181.653)" >PLUS</text>
<text fill="#0044ee"  xml:space="preserve" font-size="13.6406" transform="translate(23.3904, 133.958)" >0</text>
<text fill="#0044ee"  xml:space="preserve" font-size="13.6406" transform="translate(68.1612, 62.4168)" >MINUS</text>
<text fill="#0044ee"  xml:space="preserve" font-size="13.6406" transform="translate(355.251, 213.449)" >G</text>
<text fill="#222222"  xml:space="preserve" font-size="16.5341" transform="translate(328.493, 520.625)" >cmos_example.sch</text>
<text fill="#222222"  xml:space="preserve" font-size="16.5341" transform="translate(328.493, 496.778)" >Stefan Schippers</text>
<text fill="#222222"  xml:space="preserve" font-size="16.5341" transform="translate(764.495, 496.778)" >2020-12-27  23:52:05</text>
<text fill="#222222"  xml:space="preserve" font-size="41.3352" transform="translate(145.665, 519.297)" >SCHEM</text>
<text fill="#222222"  xml:space="preserve" font-size="8.26703" transform="translate(417.92, 390.902)" >5u/2u/1</text>
<text fill="#222222"  xml:space="preserve" font-size="8.26703" transform="translate(417.92, 411.768)" >m1</text>
<text fill="#222222"  xml:space="preserve" font-size="6.20027" transform="translate(431.831, 382.07)" >D</text>
<text fill="#222222"  xml:space="preserve" font-size="8.26703" transform="translate(473.564, 153.423)" >5u/2u/1</text>
<text fill="#222222"  xml:space="preserve" font-size="8.26703" transform="translate(473.564, 173.296)" >m2</text>
<text fill="#222222"  xml:space="preserve" font-size="6.20027" transform="translate(487.475, 181.356)" >D</text>
<text fill="#222222"  xml:space="preserve" font-size="8.26703" transform="translate(54.2503, 319.36)" >VVCC</text>
<text fill="#222222"  xml:space="preserve" font-size="8.26703" transform="translate(54.2503, 329.296)" >5</text>
<text fill="#222222"  xml:space="preserve" font-size="8.26703" transform="translate(200.117, 390.902)" >5u/2u/1</text>
<text fill="#222222"  xml:space="preserve" font-size="8.26703" transform="translate(218.117, 411.768)" >m3</text>
<text fill="#222222"  xml:space="preserve" font-size="6.20027" transform="translate(212.206, 382.07)" >D</text>
<text fill="#222222"  xml:space="preserve" font-size="8.26703" transform="translate(237.079, 310.417)" >IBIAS</text>
<text fill="#222222"  xml:space="preserve" font-size="8.26703" transform="translate(237.079, 319.417)" >100u</text>
<text fill="#222222"  xml:space="preserve" font-size="8.26703" transform="translate(362.277, 311.411)" >10u/1u/1</text>
<text fill="#222222"  xml:space="preserve" font-size="8.26703" transform="translate(362.277, 332.277)" >m4</text>
<text fill="#222222"  xml:space="preserve" font-size="6.20027" transform="translate(376.188, 302.579)" >D</text>
<text fill="#222222"  xml:space="preserve" font-size="8.26703" transform="translate(457.436, 311.411)" >10u/1u/1</text>
<text fill="#222222"  xml:space="preserve" font-size="8.26703" transform="translate(480.436, 332.277)" >m5</text>
<text fill="#222222"  xml:space="preserve" font-size="6.20027" transform="translate(474.525, 302.579)" >D</text>
<text fill="#222222"  xml:space="preserve" font-size="8.26703" transform="translate(351.149, 153.423)" >5u/2u/1</text>
<text fill="#222222"  xml:space="preserve" font-size="8.26703" transform="translate(369.149, 173.296)" >m6</text>
<text fill="#222222"  xml:space="preserve" font-size="6.20027" transform="translate(363.239, 181.356)" >D</text>
<text fill="#222222"  xml:space="preserve" font-size="8.26703" transform="translate(54.2503, 216.022)" >VPLUS</text>
<text fill="#222222"  xml:space="preserve" font-size="8.26703" transform="translate(54.2503, 225.958)" >2.5 pwl 0 2.4 10n 2.4 10.1n 2.6</text>
<text fill="#222222"  xml:space="preserve" font-size="8.26703" transform="translate(54.2503, 96.7861)" >V1</text>
<text fill="#222222"  xml:space="preserve" font-size="8.26703" transform="translate(54.2503, 106.722)" >2.5</text>
<text fill="#666600"  xml:space="preserve" font-size="8.26703" transform="translate(522.22, 225.958)" >1</text>
<text fill="#666600"  xml:space="preserve" font-size="8.26703" transform="translate(522.22, 259.742)" >2</text>
<text fill="#222222"  xml:space="preserve" font-size="8.26703" transform="translate(543.118, 231.92)" >CL</text>
<text fill="#222222"  xml:space="preserve" font-size="8.26703" transform="translate(543.118, 241.857)" >2p</text>
<text fill="#222222"  xml:space="preserve" font-size="8.26703" transform="translate(543.118, 251.793)" >m=1</text>
<text fill="#222222"  xml:space="preserve" font-size="12.4005" transform="translate(638.507, 365.84)" >sTIMULI</text>
<path class="l4" d="M415.933 374.452L415.933 422.147"/>
<path class="l4" d="M415.933 382.402L427.857 382.402"/>
<path class="l4" d="M427.857 374.452L427.857 382.402"/>
<path class="l4" d="M415.933 414.198L427.857 414.198"/>
<path class="l4" d="M427.857 414.198L427.857 422.147"/>
<path class="l4" d="M407.984 386.376L407.984 410.223"/>
<path class="l4" d="M407.984 398.3L407.984 402.274"/>
<path class="l4" d="M396.06 398.3L402.022 398.3"/>
<path class="l4" d="M396.06 398.3L407.984 398.3"/>
<path class="l4" d="M419.907 398.3L427.857 398.3"/>
<path class="l4" d="M415.933 394.325L419.907 398.3"/>
<path class="l4" d="M415.933 402.274L419.907 398.3"/>
<path class="l4" d="M471.576 135.98L471.576 183.675"/>
<path class="l4" d="M471.576 175.726L483.5 175.726"/>
<path class="l4" d="M483.5 175.726L483.5 183.675"/>
<path class="l4" d="M471.576 143.93L483.5 143.93"/>
<path class="l4" d="M483.5 135.98L483.5 143.93"/>
<path class="l4" d="M463.627 147.904L463.627 171.751"/>
<path class="l4" d="M463.627 155.853L463.627 159.828"/>
<path class="l4" d="M461.64 155.853L463.627 157.84"/>
<path class="l4" d="M459.653 155.853L461.64 155.853"/>
<path class="l4" d="M457.666 157.84L459.653 155.853"/>
<path class="l4" d="M457.666 157.84L457.666 161.815"/>
<path class="l4" d="M457.666 161.815L459.653 163.802"/>
<path class="l4" d="M459.653 163.802L461.64 163.802"/>
<path class="l4" d="M461.64 163.802L463.627 161.815"/>
<path class="l4" d="M451.704 159.828L457.666 159.828"/>
<path class="l4" d="M475.551 159.828L483.5 159.828"/>
<path class="l4" d="M471.576 155.853L475.551 159.828"/>
<path class="l4" d="M471.576 163.802L475.551 159.828"/>
<path class="l4" d="M40.3395 308.873L44.314 308.873"/>
<path class="l4" d="M42.3267 306.885L42.3267 310.86"/>
<path class="l4" d="M38.3522 302.911L38.3522 350.605"/>
<circle class="l4" cx="38.3522" cy="326.758" r="11.9236" style="fill:none;"/>
<path class="l4" d="M233.104 374.452L233.104 422.147"/>
<path class="l4" d="M221.181 382.402L233.104 382.402"/>
<path class="l4" d="M221.181 374.452L221.181 382.402"/>
<path class="l4" d="M221.181 414.198L233.104 414.198"/>
<path class="l4" d="M221.181 414.198L221.181 422.147"/>
<path class="l4" d="M241.053 386.376L241.053 410.223"/>
<path class="l4" d="M241.053 398.3L241.053 402.274"/>
<path class="l4" d="M247.015 398.3L252.977 398.3"/>
<path class="l4" d="M241.053 398.3L252.977 398.3"/>
<path class="l4" d="M221.181 398.3L229.13 398.3"/>
<path class="l4" d="M229.13 398.3L233.104 394.325"/>
<path class="l4" d="M229.13 398.3L233.104 402.274"/>
<path class="l4" d="M221.181 287.013L221.181 298.936"/>
<path class="l4" d="M221.181 322.784L221.181 334.707"/>
<path class="l4" d="M223.168 292.975L227.143 292.975"/>
<path class="l4" d="M225.155 290.987L225.155 294.962"/>
<path class="l4" d="M221.181 304.898L221.181 312.847L223.168 312.847L221.181 318.809L219.193 312.847L221.181 312.847L221.181 304.898"/>
<circle class="l4" cx="221.181" cy="310.86" r="11.9236" style="fill:none;"/>
<path class="l4" d="M360.289 294.962L360.289 342.656"/>
<path class="l4" d="M360.289 302.911L372.213 302.911"/>
<path class="l4" d="M372.213 294.962L372.213 302.911"/>
<path class="l4" d="M360.289 334.707L372.213 334.707"/>
<path class="l4" d="M372.213 334.707L372.213 342.656"/>
<path class="l4" d="M352.34 306.885L352.34 330.733"/>
<path class="l4" d="M352.34 318.809L352.34 322.784"/>
<path class="l4" d="M340.417 318.809L346.379 318.809"/>
<path class="l4" d="M340.417 318.809L352.34 318.809"/>
<path class="l4" d="M364.264 318.809L372.213 318.809"/>
<path class="l4" d="M360.289 314.834L364.264 318.809"/>
<path class="l4" d="M360.289 322.784L364.264 318.809"/>
<path class="l4" d="M495.424 294.962L495.424 342.656"/>
<path class="l4" d="M483.5 302.911L495.424 302.911"/>
<path class="l4" d="M483.5 294.962L483.5 302.911"/>
<path class="l4" d="M483.5 334.707L495.424 334.707"/>
<path class="l4" d="M483.5 334.707L483.5 342.656"/>
<path class="l4" d="M503.373 306.885L503.373 330.733"/>
<path class="l4" d="M503.373 318.809L503.373 322.784"/>
<path class="l4" d="M509.334 318.809L515.296 318.809"/>
<path class="l4" d="M503.373 318.809L515.296 318.809"/>
<path class="l4" d="M483.5 318.809L491.449 318.809"/>
<path class="l4" d="M491.449 318.809L495.424 314.834"/>
<path class="l4" d="M491.449 318.809L495.424 322.784"/>
<path class="l4" d="M384.137 135.98L384.137 183.675"/>
<path class="l4" d="M372.213 175.726L384.137 175.726"/>
<path class="l4" d="M372.213 175.726L372.213 183.675"/>
<path class="l4" d="M372.213 143.93L384.137 143.93"/>
<path class="l4" d="M372.213 135.98L372.213 143.93"/>
<path class="l4" d="M392.086 147.904L392.086 171.751"/>
<path class="l4" d="M392.086 155.853L392.086 159.828"/>
<path class="l4" d="M392.086 157.84L394.073 155.853"/>
<path class="l4" d="M394.073 155.853L396.06 155.853"/>
<path class="l4" d="M396.06 155.853L398.048 157.84"/>
<path class="l4" d="M398.048 157.84L398.048 161.815"/>
<path class="l4" d="M396.06 163.802L398.048 161.815"/>
<path class="l4" d="M394.073 163.802L396.06 163.802"/>
<path class="l4" d="M392.086 161.815L394.073 163.802"/>
<path class="l4" d="M398.048 159.828L404.009 159.828"/>
<path class="l4" d="M372.213 159.828L380.162 159.828"/>
<path class="l4" d="M380.162 159.828L384.137 155.853"/>
<path class="l4" d="M380.162 159.828L384.137 163.802"/>
<path class="l4" d="M40.3395 205.535L44.314 205.535"/>
<path class="l4" d="M42.3267 203.548L42.3267 207.522"/>
<path class="l4" d="M38.3522 199.573L38.3522 247.267"/>
<circle class="l4" cx="38.3522" cy="223.42" r="11.9236" style="fill:none;"/>
<path class="l4" d="M40.3395 86.2988L44.314 86.2988"/>
<path class="l4" d="M42.3267 84.3115L42.3267 88.286"/>
<path class="l4" d="M38.3522 80.337L38.3522 128.031"/>
<circle class="l4" cx="38.3522" cy="104.184" r="11.9236" style="fill:none;"/>
<path class="l4" d="M531.194 243.293L531.194 263.166"/>
<path class="l4" d="M531.194 215.471L531.194 235.344"/>
<path class="l4" d="M523.245 235.344L539.143 235.344"/>
<path class="l4" d="M523.245 243.293L539.143 243.293"/>
<path class="l4" d="M533.182 221.433L537.156 221.433"/>
<path class="l4" d="M535.169 219.446L535.169 223.42"/>
<path class="l4" d="M642.481 398.3L674.278 398.3"/>
<path class="l4" d="M642.481 406.249L658.379 406.249"/>
<path class="l4" d="M642.481 414.198L674.278 414.198"/>
<path class="l4" d="M642.481 422.147L666.329 422.147"/>
<path class="l4" d="M642.481 430.096L666.329 430.096"/>
<path class="l4" d="M642.481 438.045L698.125 438.045"/>
<path class="l4" d="M642.481 445.994L658.379 445.994"/>
<path class="l4" d="M642.481 390.351L682.227 390.351"/>
<path class="l4" d="M642.481 382.402L658.379 382.402"/>
<path class="l4" d="M706.074 382.402L714.023 382.402"/>
<path class="l4" d="M714.023 382.402L714.023 461.892"/>
<path class="l4" d="M642.481 461.892L714.023 461.892"/>
<path class="l4" d="M642.481 453.943L642.481 461.892"/>
<path class="l4" d="M706.074 374.452L706.074 453.943"/>
<path class="l4" d="M634.532 453.943L706.074 453.943"/>
<path class="l4" d="M634.532 374.452L634.532 453.943"/>
<path class="l4" d="M634.532 374.452L706.074 374.452"/>
<path class="l5" d="M530.201 262.172L532.188 262.172L532.188 264.159L530.201 264.159L530.201 262.172z"/>
<path class="l5" d="M37.3586 349.612L39.3458 349.612L39.3458 351.599L37.3586 351.599L37.3586 349.612z"/>
<path class="l5" d="M145.665 477.79L121.817 501.638L145.665 525.485L129.766 525.485L113.868 509.587L97.9702 525.485L82.0721 525.485L105.919 501.638L82.0721 477.79L97.9702 477.79L113.868 493.689L129.766 477.79L145.665 477.79"/>
<path class="l5" d="M425.869 372.465L429.844 372.465L429.844 376.44L425.869 376.44L425.869 372.465z"/>
<path class="l5" d="M394.073 396.312L398.048 396.312L398.048 400.287L394.073 400.287L394.073 396.312z"/>
<path class="l5" d="M425.869 420.16L429.844 420.16L429.844 424.134L425.869 424.134L425.869 420.16z"/>
<path class="l5" d="M425.869 396.312L429.844 396.312L429.844 400.287L425.869 400.287L425.869 396.312z"/>
<path class="l5" d="M481.513 181.688L485.487 181.688L485.487 185.662L481.513 185.662L481.513 181.688z"/>
<path class="l5" d="M449.716 157.84L453.691 157.84L453.691 161.815L449.716 161.815L449.716 157.84z"/>
<path class="l5" d="M481.513 133.993L485.487 133.993L485.487 137.968L481.513 137.968L481.513 133.993z"/>
<path class="l5" d="M481.513 157.84L485.487 157.84L485.487 161.815L481.513 161.815L481.513 157.84z"/>
<path class="l5" d="M36.3649 300.924L40.3395 300.924L40.3395 304.898L36.3649 304.898L36.3649 300.924z"/>
<path class="l5" d="M36.3649 348.618L40.3395 348.618L40.3395 352.593L36.3649 352.593L36.3649 348.618z"/>
<path class="l5" d="M426.863 445L428.85 445L428.85 446.988L426.863 446.988L426.863 445z"/>
<path class="l5" d="M61.2058 278.07L63.193 278.07L63.193 280.057L61.2058 280.057L61.2058 278.07z"/>
<path class="l5" d="M219.193 372.465L223.168 372.465L223.168 376.44L219.193 376.44L219.193 372.465z"/>
<path class="l5" d="M250.99 396.312L254.964 396.312L254.964 400.287L250.99 400.287L250.99 396.312z"/>
<path class="l5" d="M219.193 420.16L223.168 420.16L223.168 424.134L219.193 424.134L219.193 420.16z"/>
<path class="l5" d="M219.193 396.312L223.168 396.312L223.168 400.287L219.193 400.287L219.193 396.312z"/>
<path class="l5" d="M220.187 445L222.174 445L222.174 446.988L220.187 446.988L220.187 445z"/>
<path class="l5" d="M219.193 285.025L223.168 285.025L223.168 289L219.193 289L219.193 285.025z"/>
<path class="l5" d="M219.193 332.72L223.168 332.72L223.168 336.694L219.193 336.694L219.193 332.72z"/>
<path class="l5" d="M220.187 286.019L222.174 286.019L222.174 288.006L220.187 288.006L220.187 286.019z"/>
<path class="l5" d="M370.226 292.975L374.2 292.975L374.2 296.949L370.226 296.949L370.226 292.975z"/>
<path class="l5" d="M338.43 316.822L342.404 316.822L342.404 320.796L338.43 320.796L338.43 316.822z"/>
<path class="l5" d="M370.226 340.669L374.2 340.669L374.2 344.643L370.226 344.643L370.226 340.669z"/>
<path class="l5" d="M370.226 316.822L374.2 316.822L374.2 320.796L370.226 320.796L370.226 316.822z"/>
<path class="l5" d="M387.118 317.815L389.105 317.815L389.105 319.803L387.118 319.803L387.118 317.815z"/>
<path class="l5" d="M481.513 292.975L485.487 292.975L485.487 296.949L481.513 296.949L481.513 292.975z"/>
<path class="l5" d="M513.309 316.822L517.284 316.822L517.284 320.796L513.309 320.796L513.309 316.822z"/>
<path class="l5" d="M481.513 340.669L485.487 340.669L485.487 344.643L481.513 344.643L481.513 340.669z"/>
<path class="l5" d="M481.513 316.822L485.487 316.822L485.487 320.796L481.513 320.796L481.513 316.822z"/>
<path class="l5" d="M466.608 317.815L468.595 317.815L468.595 319.803L466.608 319.803L466.608 317.815z"/>
<path class="l5" d="M522.252 158.834L524.239 158.834L524.239 160.821L522.252 160.821L522.252 158.834z"/>
<path class="l5" d="M370.226 181.688L374.2 181.688L374.2 185.662L370.226 185.662L370.226 181.688z"/>
<path class="l5" d="M402.022 157.84L405.997 157.84L405.997 161.815L402.022 161.815L402.022 157.84z"/>
<path class="l5" d="M370.226 133.993L374.2 133.993L374.2 137.968L370.226 137.968L370.226 133.993z"/>
<path class="l5" d="M370.226 157.84L374.2 157.84L374.2 161.815L370.226 161.815L370.226 157.84z"/>
<path class="l5" d="M331.474 158.834L333.461 158.834L333.461 160.821L331.474 160.821L331.474 158.834z"/>
<path class="l5" d="M426.863 87.2924L428.85 87.2924L428.85 89.2797L426.863 89.2797L426.863 87.2924z"/>
<path class="l5" d="M323.525 317.815L325.512 317.815L325.512 319.803L323.525 319.803L323.525 317.815z"/>
<path class="l5" d="M530.201 317.815L532.188 317.815L532.188 319.803L530.201 319.803L530.201 317.815z"/>
<path class="l5" d="M593.793 214.477L595.781 214.477L595.781 216.465L593.793 216.465L593.793 214.477z"/>
<path class="l5" d="M220.187 357.561L222.174 357.561L222.174 359.548L220.187 359.548L220.187 357.561z"/>
<path class="l5" d="M37.3586 246.274L39.3458 246.274L39.3458 248.261L37.3586 248.261L37.3586 246.274z"/>
<path class="l5" d="M36.3649 197.586L40.3395 197.586L40.3395 201.56L36.3649 201.56L36.3649 197.586z"/>
<path class="l5" d="M36.3649 245.28L40.3395 245.28L40.3395 249.255L36.3649 249.255L36.3649 245.28z"/>
<path class="l5" d="M61.2058 174.732L63.193 174.732L63.193 176.719L61.2058 176.719L61.2058 174.732z"/>
<path class="l5" d="M37.3586 127.038L39.3458 127.038L39.3458 129.025L37.3586 129.025L37.3586 127.038z"/>
<path class="l5" d="M36.3649 78.3497L40.3395 78.3497L40.3395 82.3242L36.3649 82.3242L36.3649 78.3497z"/>
<path class="l5" d="M36.3649 126.044L40.3395 126.044L40.3395 130.019L36.3649 130.019L36.3649 126.044z"/>
<path class="l5" d="M61.2058 55.4961L63.193 55.4961L63.193 57.4834L61.2058 57.4834L61.2058 55.4961z"/>
<path class="l5" d="M529.207 213.484L533.182 213.484L533.182 217.458L529.207 217.458L529.207 213.484z"/>
<path class="l5" d="M529.207 261.178L533.182 261.178L533.182 265.153L529.207 265.153L529.207 261.178z"/>
<path class="l5" d="M371.219 206.528L373.207 206.528L373.207 208.516L371.219 208.516L371.219 206.528z"/>
<path class="l6" d="M320.544 501.638L952.495 501.638"/>
<path class="l6" d="M14.505 501.638L66.1739 501.638"/>
<path class="l1" d="M38.3522 279.064L38.3522 302.911"/>
<path class="l1" d="M38.3522 279.064L62.1994 279.064"/>
<path class="l1" d="M221.181 334.707L221.181 374.452"/>
<path class="l1" d="M221.181 374.452L252.977 374.452"/>
<path class="l1" d="M252.977 374.452L252.977 398.3"/>
<path class="l1" d="M252.977 398.3L396.06 398.3"/>
<path class="l1" d="M427.857 342.656L427.857 374.452"/>
<path class="l1" d="M372.213 318.809L388.111 318.809"/>
<path class="l1" d="M467.602 318.809L483.5 318.809"/>
<path class="l1" d="M372.213 342.656L483.5 342.656"/>
<path class="l1" d="M324.519 318.809L340.417 318.809"/>
<path class="l1" d="M515.296 318.809L531.194 318.809"/>
<path class="l1" d="M483.5 159.828L523.245 159.828"/>
<path class="l1" d="M332.468 159.828L372.213 159.828"/>
<path class="l1" d="M404.009 159.828L451.704 159.828"/>
<path class="l1" d="M404.009 159.828L404.009 183.675"/>
<path class="l1" d="M372.213 183.675L404.009 183.675"/>
<path class="l1" d="M372.213 183.675L372.213 294.962"/>
<path class="l1" d="M483.5 183.675L483.5 294.962"/>
<path class="l1" d="M483.5 104.184L483.5 135.98"/>
<path class="l1" d="M372.213 104.184L483.5 104.184"/>
<path class="l1" d="M372.213 104.184L372.213 135.98"/>
<path class="l1" d="M427.857 88.286L427.857 104.184"/>
<path class="l1" d="M483.5 215.471L594.787 215.471"/>
<path class="l1" d="M38.3522 175.726L38.3522 199.573"/>
<path class="l1" d="M38.3522 175.726L62.1994 175.726"/>
<path class="l1" d="M38.3522 56.4898L38.3522 80.337"/>
<path class="l1" d="M38.3522 56.4898L62.1994 56.4898"/>
<path class="l1" d="M427.857 422.147L427.857 445.994"/>
<path class="l1" d="M427.857 422.147L443.755 422.147"/>
<path class="l1" d="M443.755 398.3L443.755 422.147"/>
<path class="l1" d="M427.857 398.3L443.755 398.3"/>
<path class="l1" d="M221.181 422.147L221.181 445.994"/>
<path class="l1" d="M205.283 422.147L221.181 422.147"/>
<path class="l1" d="M205.283 398.3L205.283 422.147"/>
<path class="l1" d="M205.283 398.3L221.181 398.3"/>
<circle class="l1" cx="427.857" cy="104.184" r="3.17963"/>
<circle class="l1" cx="483.5" cy="215.471" r="3.17963"/>
<circle class="l1" cx="427.857" cy="342.656" r="3.17963"/>
</svg>
