<svg xmlns="http://www.w3.org/2000/svg" width="967" height="538" version="1.1">
<style type="text/css">
.l0{
 fill: #ffffff;
  stroke: #ffffff;
  stroke-linecap:round;
  stroke-linejoin:round;
  stroke-width: 0.84;
  fill-opacity: 0;
  stroke-opacity: 0;
}
.l1{
 fill: #0044ee;
  stroke: #0044ee;
  stroke-linecap:round;
  stroke-linejoin:round;
  stroke-width: 0.84;
}
.l2{
  fill: none;
  stroke: #aaaaaa;
  stroke-linecap:round;
  stroke-linejoin:round;
  stroke-width: 0.84;
}
.l3{
 fill: #222222; fill-opacity: 0.5;
  stroke: #222222;
  stroke-linecap:round;
  stroke-linejoin:round;
  stroke-width: 0.84;
}
.l4{
 fill: #229900;
  stroke: #229900;
  stroke-linecap:round;
  stroke-linejoin:round;
  stroke-width: 0.84;
}
.l5{
 fill: #bb2200;
  stroke: #bb2200;
  stroke-linecap:round;
  stroke-linejoin:round;
  stroke-width: 0.84;
}
.l6{
 fill: #00ccee; fill-opacity: 0.5;
  stroke: #00ccee;
  stroke-linecap:round;
  stroke-linejoin:round;
  stroke-width: 0.84;
}
.l7{
 fill: #ff0000; fill-opacity: 0.5;
  stroke: #ff0000;
  stroke-linecap:round;
  stroke-linejoin:round;
  stroke-width: 0.84;
}
.l8{
 fill: #888800; fill-opacity: 0.5;
  stroke: #888800;
  stroke-linecap:round;
  stroke-linejoin:round;
  stroke-width: 0.84;
}
.l9{
 fill: #00aaaa; fill-opacity: 0.5;
  stroke: #00aaaa;
  stroke-linecap:round;
  stroke-linejoin:round;
  stroke-width: 0.84;
}
.l10{
 fill: #880088;
  stroke: #880088;
  stroke-linecap:round;
  stroke-linejoin:round;
  stroke-width: 0.84;
}
.l11{
 fill: #00ff00; fill-opacity: 0.5;
  stroke: #00ff00;
  stroke-linecap:round;
  stroke-linejoin:round;
  stroke-width: 0.84;
}
.l12{
 fill: #0000cc; fill-opacity: 0.5;
  stroke: #0000cc;
  stroke-linecap:round;
  stroke-linejoin:round;
  stroke-width: 0.84;
}
.l13{
 fill: #666600; fill-opacity: 0.5;
  stroke: #666600;
  stroke-linecap:round;
  stroke-linejoin:round;
  stroke-width: 0.84;
}
.l14{
  fill: none;
  stroke: #557755;
  stroke-linecap:round;
  stroke-linejoin:round;
  stroke-width: 0.84;
}
.l15{
 fill: #aa2222; fill-opacity: 0.5;
  stroke: #aa2222;
  stroke-linecap:round;
  stroke-linejoin:round;
  stroke-width: 0.84;
}
.l16{
 fill: #7ccc40; fill-opacity: 0.5;
  stroke: #7ccc40;
  stroke-linecap:round;
  stroke-linejoin:round;
  stroke-width: 0.84;
}
.l17{
  fill: none;
  stroke: #00ffcc;
  stroke-linecap:round;
  stroke-linejoin:round;
  stroke-width: 0.84;
}
.l18{
 fill: #ce0097; fill-opacity: 0.5;
  stroke: #ce0097;
  stroke-linecap:round;
  stroke-linejoin:round;
  stroke-width: 0.84;
}
.l19{
  fill: none;
  stroke: #d2d46b;
  stroke-linecap:round;
  stroke-linejoin:round;
  stroke-width: 0.84;
}
.l20{
  fill: none;
  stroke: #ef6158;
  stroke-linecap:round;
  stroke-linejoin:round;
  stroke-width: 0.84;
}
.l21{
  fill: none;
  stroke: #fdb200;
  stroke-linecap:round;
  stroke-linejoin:round;
  stroke-width: 0.84;
}
text {font-family: Sans-Serif;}
</style>
<rect class="l0" x="0" y="0" width="967" height="538"/>
<text fill="#222222"  xml:space="preserve" font-size="16.5341" transform="translate(213.232, 23.9734)" >CMOS DIFFERENTIAL AMPLIFIER</text>
<text fill="#222222"  xml:space="preserve" font-size="16.5341" transform="translate(213.232, 41.9734)" >EXAMPLE</text>
<text fill="#0044ee"  xml:space="preserve" font-size="13.6406" transform="translate(516.233, 269.258)" >0</text>
<text fill="#0044ee"  xml:space="preserve" font-size="13.6406" transform="translate(23.3904, 356.697)" >0</text>
<text fill="#0044ee"  xml:space="preserve" font-size="13.6406" transform="translate(412.895, 452.086)" >0</text>
<text fill="#0044ee"  xml:space="preserve" font-size="13.6406" transform="translate(68.1612, 285.156)" >VCC</text>
<text fill="#0044ee"  xml:space="preserve" font-size="13.6406" transform="translate(206.219, 452.086)" >0</text>
<text fill="#0044ee"  xml:space="preserve" font-size="13.6406" transform="translate(206.219, 293.105)" >0</text>
<text fill="#0044ee"  xml:space="preserve" font-size="13.6406" transform="translate(394.073, 324.901)" >0</text>
<text fill="#0044ee"  xml:space="preserve" font-size="13.6406" transform="translate(452.64, 324.901)" >0</text>
<text fill="#0044ee"  xml:space="preserve" font-size="13.6406" transform="translate(529.207, 165.92)" >VCC</text>
<text fill="#0044ee"  xml:space="preserve" font-size="13.6406" transform="translate(297.506, 165.92)" >VCC</text>
<text fill="#0044ee"  xml:space="preserve" font-size="13.6406" transform="translate(392.895, 94.3782)" >VCC</text>
<text fill="#0044ee"  xml:space="preserve" font-size="13.6406" transform="translate(283.557, 324.901)" >PLUS</text>
<text fill="#0044ee"  xml:space="preserve" font-size="13.6406" transform="translate(537.156, 324.901)" >MINUS</text>
<text fill="#0044ee"  xml:space="preserve" font-size="13.6406" transform="translate(600.749, 221.563)" >DIFFOUT</text>
<text fill="#0044ee"  xml:space="preserve" font-size="13.6406" transform="translate(194.219, 364.646)" >GN</text>
<text fill="#0044ee"  xml:space="preserve" font-size="13.6406" transform="translate(23.3904, 253.36)" >0</text>
<text fill="#0044ee"  xml:space="preserve" font-size="13.6406" transform="translate(68.1612, 181.818)" >PLUS</text>
<text fill="#0044ee"  xml:space="preserve" font-size="13.6406" transform="translate(23.3904, 134.124)" >0</text>
<text fill="#0044ee"  xml:space="preserve" font-size="13.6406" transform="translate(68.1612, 62.5819)" >MINUS</text>
<text fill="#0044ee"  xml:space="preserve" font-size="13.6406" transform="translate(355.251, 213.614)" >G</text>
<text fill="#222222"  xml:space="preserve" font-size="16.5341" transform="translate(328.493, 520.79)" >cmos_example.sch</text>
<text fill="#222222"  xml:space="preserve" font-size="16.5341" transform="translate(328.493, 496.943)" >Stefan Schippers</text>
<text fill="#222222"  xml:space="preserve" font-size="16.5341" transform="translate(764.495, 496.943)" >2020-12-28  00:02:28</text>
<text fill="#222222"  xml:space="preserve" font-size="41.3352" transform="translate(145.665, 519.462)" >SCHEM</text>
<text fill="#222222"  xml:space="preserve" font-size="8.26703" transform="translate(417.92, 391.067)" >5u/2u/1</text>
<text fill="#222222"  xml:space="preserve" font-size="8.26703" transform="translate(417.92, 411.933)" >m1</text>
<text fill="#222222"  xml:space="preserve" font-size="6.20027" transform="translate(431.831, 382.235)" >D</text>
<text fill="#222222"  xml:space="preserve" font-size="8.26703" transform="translate(473.564, 153.588)" >5u/2u/1</text>
<text fill="#222222"  xml:space="preserve" font-size="8.26703" transform="translate(473.564, 173.461)" >m2</text>
<text fill="#222222"  xml:space="preserve" font-size="6.20027" transform="translate(487.475, 181.521)" >D</text>
<text fill="#222222"  xml:space="preserve" font-size="8.26703" transform="translate(54.2503, 319.525)" >VVCC</text>
<text fill="#222222"  xml:space="preserve" font-size="8.26703" transform="translate(54.2503, 329.461)" >5</text>
<text fill="#222222"  xml:space="preserve" font-size="8.26703" transform="translate(200.117, 391.067)" >5u/2u/1</text>
<text fill="#222222"  xml:space="preserve" font-size="8.26703" transform="translate(218.117, 411.933)" >m3</text>
<text fill="#222222"  xml:space="preserve" font-size="6.20027" transform="translate(212.206, 382.235)" >D</text>
<text fill="#222222"  xml:space="preserve" font-size="8.26703" transform="translate(237.079, 310.582)" >IBIAS</text>
<text fill="#222222"  xml:space="preserve" font-size="8.26703" transform="translate(237.079, 319.582)" >100u</text>
<text fill="#222222"  xml:space="preserve" font-size="8.26703" transform="translate(362.277, 311.576)" >10u/1u/1</text>
<text fill="#222222"  xml:space="preserve" font-size="8.26703" transform="translate(362.277, 332.442)" >m4</text>
<text fill="#222222"  xml:space="preserve" font-size="6.20027" transform="translate(376.188, 302.744)" >D</text>
<text fill="#222222"  xml:space="preserve" font-size="8.26703" transform="translate(457.436, 311.576)" >10u/1u/1</text>
<text fill="#222222"  xml:space="preserve" font-size="8.26703" transform="translate(480.436, 332.442)" >m5</text>
<text fill="#222222"  xml:space="preserve" font-size="6.20027" transform="translate(474.525, 302.744)" >D</text>
<text fill="#222222"  xml:space="preserve" font-size="8.26703" transform="translate(351.149, 153.588)" >5u/2u/1</text>
<text fill="#222222"  xml:space="preserve" font-size="8.26703" transform="translate(369.149, 173.461)" >m6</text>
<text fill="#222222"  xml:space="preserve" font-size="6.20027" transform="translate(363.239, 181.521)" >D</text>
<text fill="#222222"  xml:space="preserve" font-size="8.26703" transform="translate(54.2503, 216.187)" >VPLUS</text>
<text fill="#222222"  xml:space="preserve" font-size="8.26703" transform="translate(54.2503, 226.124)" >2.5 pwl 0 2.4 10n 2.4 10.1n 2.6</text>
<text fill="#222222"  xml:space="preserve" font-size="8.26703" transform="translate(54.2503, 96.9512)" >V1</text>
<text fill="#222222"  xml:space="preserve" font-size="8.26703" transform="translate(54.2503, 106.888)" >2.5</text>
<text fill="#666600"  xml:space="preserve" font-size="8.26703" transform="translate(522.22, 226.124)" >1</text>
<text fill="#666600"  xml:space="preserve" font-size="8.26703" transform="translate(522.22, 259.907)" >2</text>
<text fill="#222222"  xml:space="preserve" font-size="8.26703" transform="translate(543.118, 232.085)" >CL</text>
<text fill="#222222"  xml:space="preserve" font-size="8.26703" transform="translate(543.118, 242.022)" >2p</text>
<text fill="#222222"  xml:space="preserve" font-size="8.26703" transform="translate(543.118, 251.958)" >m=1</text>
<text fill="#222222"  xml:space="preserve" font-size="12.4005" transform="translate(638.507, 366.005)" >STIMULI</text>
<text fill="#222222"  xml:space="preserve" font-size="16.5341" transform="translate(539.143, 483.468)" >Backannotate</text>
<text fill="#aa2222"  xml:space="preserve" font-size="8.26703" transform="translate(477.538, 82.0467)" >5</text>
<text fill="#aa2222"  xml:space="preserve" font-size="8.26703" transform="translate(572.927, 193.334)" >3.321</text>
<text fill="#aa2222"  xml:space="preserve" font-size="8.26703" transform="translate(382.149, 193.334)" >3.321</text>
<text fill="#aa2222"  xml:space="preserve" font-size="8.26703" transform="translate(310.608, 376.162)" >1.31</text>
<path class="l4" d="M415.933 374.618L415.933 422.312"/>
<path class="l4" d="M415.933 382.567L427.857 382.567"/>
<path class="l4" d="M427.857 374.618L427.857 382.567"/>
<path class="l4" d="M415.933 414.363L427.857 414.363"/>
<path class="l4" d="M427.857 414.363L427.857 422.312"/>
<path class="l4" d="M407.984 386.541L407.984 410.388"/>
<path class="l4" d="M407.984 398.465L407.984 402.439"/>
<path class="l4" d="M396.06 398.465L402.022 398.465"/>
<path class="l4" d="M396.06 398.465L407.984 398.465"/>
<path class="l4" d="M419.907 398.465L427.857 398.465"/>
<path class="l4" d="M415.933 394.49L419.907 398.465"/>
<path class="l4" d="M415.933 402.439L419.907 398.465"/>
<path class="l4" d="M471.576 136.146L471.576 183.84"/>
<path class="l4" d="M471.576 175.891L483.5 175.891"/>
<path class="l4" d="M483.5 175.891L483.5 183.84"/>
<path class="l4" d="M471.576 144.095L483.5 144.095"/>
<path class="l4" d="M483.5 136.146L483.5 144.095"/>
<path class="l4" d="M463.627 148.069L463.627 171.916"/>
<path class="l4" d="M463.627 156.018L463.627 159.993"/>
<path class="l4" d="M461.64 156.018L463.627 158.005"/>
<path class="l4" d="M459.653 156.018L461.64 156.018"/>
<path class="l4" d="M457.666 158.005L459.653 156.018"/>
<path class="l4" d="M457.666 158.005L457.666 161.98"/>
<path class="l4" d="M457.666 161.98L459.653 163.967"/>
<path class="l4" d="M459.653 163.967L461.64 163.967"/>
<path class="l4" d="M461.64 163.967L463.627 161.98"/>
<path class="l4" d="M451.704 159.993L457.666 159.993"/>
<path class="l4" d="M475.551 159.993L483.5 159.993"/>
<path class="l4" d="M471.576 156.018L475.551 159.993"/>
<path class="l4" d="M471.576 163.967L475.551 159.993"/>
<path class="l4" d="M40.3395 309.038L44.314 309.038"/>
<path class="l4" d="M42.3267 307.051L42.3267 311.025"/>
<path class="l4" d="M38.3522 303.076L38.3522 350.77"/>
<circle class="l4" cx="38.3522" cy="326.923" r="11.9236" style="fill:none;"/>
<path class="l4" d="M233.104 374.618L233.104 422.312"/>
<path class="l4" d="M221.181 382.567L233.104 382.567"/>
<path class="l4" d="M221.181 374.618L221.181 382.567"/>
<path class="l4" d="M221.181 414.363L233.104 414.363"/>
<path class="l4" d="M221.181 414.363L221.181 422.312"/>
<path class="l4" d="M241.053 386.541L241.053 410.388"/>
<path class="l4" d="M241.053 398.465L241.053 402.439"/>
<path class="l4" d="M247.015 398.465L252.977 398.465"/>
<path class="l4" d="M241.053 398.465L252.977 398.465"/>
<path class="l4" d="M221.181 398.465L229.13 398.465"/>
<path class="l4" d="M229.13 398.465L233.104 394.49"/>
<path class="l4" d="M229.13 398.465L233.104 402.439"/>
<path class="l4" d="M221.181 287.178L221.181 299.101"/>
<path class="l4" d="M221.181 322.949L221.181 334.872"/>
<path class="l4" d="M223.168 293.14L227.143 293.14"/>
<path class="l4" d="M225.155 291.152L225.155 295.127"/>
<path class="l4" d="M221.181 305.063L221.181 313.012L223.168 313.012L221.181 318.974L219.193 313.012L221.181 313.012L221.181 305.063"/>
<circle class="l4" cx="221.181" cy="311.025" r="11.9236" style="fill:none;"/>
<path class="l4" d="M360.289 295.127L360.289 342.821"/>
<path class="l4" d="M360.289 303.076L372.213 303.076"/>
<path class="l4" d="M372.213 295.127L372.213 303.076"/>
<path class="l4" d="M360.289 334.872L372.213 334.872"/>
<path class="l4" d="M372.213 334.872L372.213 342.821"/>
<path class="l4" d="M352.34 307.051L352.34 330.898"/>
<path class="l4" d="M352.34 318.974L352.34 322.949"/>
<path class="l4" d="M340.417 318.974L346.379 318.974"/>
<path class="l4" d="M340.417 318.974L352.34 318.974"/>
<path class="l4" d="M364.264 318.974L372.213 318.974"/>
<path class="l4" d="M360.289 315L364.264 318.974"/>
<path class="l4" d="M360.289 322.949L364.264 318.974"/>
<path class="l4" d="M495.424 295.127L495.424 342.821"/>
<path class="l4" d="M483.5 303.076L495.424 303.076"/>
<path class="l4" d="M483.5 295.127L483.5 303.076"/>
<path class="l4" d="M483.5 334.872L495.424 334.872"/>
<path class="l4" d="M483.5 334.872L483.5 342.821"/>
<path class="l4" d="M503.373 307.051L503.373 330.898"/>
<path class="l4" d="M503.373 318.974L503.373 322.949"/>
<path class="l4" d="M509.334 318.974L515.296 318.974"/>
<path class="l4" d="M503.373 318.974L515.296 318.974"/>
<path class="l4" d="M483.5 318.974L491.449 318.974"/>
<path class="l4" d="M491.449 318.974L495.424 315"/>
<path class="l4" d="M491.449 318.974L495.424 322.949"/>
<path class="l4" d="M384.137 136.146L384.137 183.84"/>
<path class="l4" d="M372.213 175.891L384.137 175.891"/>
<path class="l4" d="M372.213 175.891L372.213 183.84"/>
<path class="l4" d="M372.213 144.095L384.137 144.095"/>
<path class="l4" d="M372.213 136.146L372.213 144.095"/>
<path class="l4" d="M392.086 148.069L392.086 171.916"/>
<path class="l4" d="M392.086 156.018L392.086 159.993"/>
<path class="l4" d="M392.086 158.005L394.073 156.018"/>
<path class="l4" d="M394.073 156.018L396.06 156.018"/>
<path class="l4" d="M396.06 156.018L398.048 158.005"/>
<path class="l4" d="M398.048 158.005L398.048 161.98"/>
<path class="l4" d="M396.06 163.967L398.048 161.98"/>
<path class="l4" d="M394.073 163.967L396.06 163.967"/>
<path class="l4" d="M392.086 161.98L394.073 163.967"/>
<path class="l4" d="M398.048 159.993L404.009 159.993"/>
<path class="l4" d="M372.213 159.993L380.162 159.993"/>
<path class="l4" d="M380.162 159.993L384.137 156.018"/>
<path class="l4" d="M380.162 159.993L384.137 163.967"/>
<path class="l4" d="M40.3395 205.7L44.314 205.7"/>
<path class="l4" d="M42.3267 203.713L42.3267 207.687"/>
<path class="l4" d="M38.3522 199.738L38.3522 247.432"/>
<circle class="l4" cx="38.3522" cy="223.585" r="11.9236" style="fill:none;"/>
<path class="l4" d="M40.3395 86.4639L44.314 86.4639"/>
<path class="l4" d="M42.3267 84.4766L42.3267 88.4511"/>
<path class="l4" d="M38.3522 80.5021L38.3522 128.196"/>
<circle class="l4" cx="38.3522" cy="104.349" r="11.9236" style="fill:none;"/>
<path class="l4" d="M531.194 243.458L531.194 263.331"/>
<path class="l4" d="M531.194 215.636L531.194 235.509"/>
<path class="l4" d="M523.245 235.509L539.143 235.509"/>
<path class="l4" d="M523.245 243.458L539.143 243.458"/>
<path class="l4" d="M533.182 221.598L537.156 221.598"/>
<path class="l4" d="M535.169 219.611L535.169 223.585"/>
<path class="l4" d="M642.481 398.465L674.278 398.465"/>
<path class="l4" d="M642.481 406.414L658.379 406.414"/>
<path class="l4" d="M642.481 414.363L674.278 414.363"/>
<path class="l4" d="M642.481 422.312L666.329 422.312"/>
<path class="l4" d="M642.481 430.261L666.329 430.261"/>
<path class="l4" d="M642.481 438.21L698.125 438.21"/>
<path class="l4" d="M642.481 446.159L658.379 446.159"/>
<path class="l4" d="M642.481 390.516L682.227 390.516"/>
<path class="l4" d="M642.481 382.567L658.379 382.567"/>
<path class="l4" d="M706.074 382.567L714.023 382.567"/>
<path class="l4" d="M714.023 382.567L714.023 462.057"/>
<path class="l4" d="M642.481 462.057L714.023 462.057"/>
<path class="l4" d="M642.481 454.108L642.481 462.057"/>
<path class="l4" d="M706.074 374.618L706.074 454.108"/>
<path class="l4" d="M634.532 454.108L706.074 454.108"/>
<path class="l4" d="M634.532 374.618L634.532 454.108"/>
<path class="l4" d="M634.532 374.618L706.074 374.618"/>
<path class="l4" d="M531.194 477.955L507.347 468.019L507.347 473.981L483.5 473.981L491.449 477.955L483.5 481.93L507.347 481.93L507.347 487.892L531.194 477.955"/>
<path class="l5" d="M530.201 262.337L532.188 262.337L532.188 264.324L530.201 264.324L530.201 262.337z"/>
<path class="l5" d="M37.3586 349.777L39.3458 349.777L39.3458 351.764L37.3586 351.764L37.3586 349.777z"/>
<path class="l5" d="M145.665 477.955L121.817 501.803L145.665 525.65L129.766 525.65L113.868 509.752L97.9702 525.65L82.0721 525.65L105.919 501.803L82.0721 477.955L97.9702 477.955L113.868 493.854L129.766 477.955L145.665 477.955"/>
<path class="l5" d="M425.869 372.63L429.844 372.63L429.844 376.605L425.869 376.605L425.869 372.63z"/>
<path class="l5" d="M394.073 396.478L398.048 396.478L398.048 400.452L394.073 400.452L394.073 396.478z"/>
<path class="l5" d="M425.869 420.325L429.844 420.325L429.844 424.299L425.869 424.299L425.869 420.325z"/>
<path class="l5" d="M425.869 396.478L429.844 396.478L429.844 400.452L425.869 400.452L425.869 396.478z"/>
<path class="l5" d="M481.513 181.853L485.487 181.853L485.487 185.827L481.513 185.827L481.513 181.853z"/>
<path class="l5" d="M449.716 158.005L453.691 158.005L453.691 161.98L449.716 161.98L449.716 158.005z"/>
<path class="l5" d="M481.513 134.158L485.487 134.158L485.487 138.133L481.513 138.133L481.513 134.158z"/>
<path class="l5" d="M481.513 158.005L485.487 158.005L485.487 161.98L481.513 161.98L481.513 158.005z"/>
<path class="l5" d="M36.3649 301.089L40.3395 301.089L40.3395 305.063L36.3649 305.063L36.3649 301.089z"/>
<path class="l5" d="M36.3649 348.783L40.3395 348.783L40.3395 352.758L36.3649 352.758L36.3649 348.783z"/>
<path class="l5" d="M426.863 445.166L428.85 445.166L428.85 447.153L426.863 447.153L426.863 445.166z"/>
<path class="l5" d="M61.2058 278.235L63.193 278.235L63.193 280.222L61.2058 280.222L61.2058 278.235z"/>
<path class="l5" d="M219.193 372.63L223.168 372.63L223.168 376.605L219.193 376.605L219.193 372.63z"/>
<path class="l5" d="M250.99 396.478L254.964 396.478L254.964 400.452L250.99 400.452L250.99 396.478z"/>
<path class="l5" d="M219.193 420.325L223.168 420.325L223.168 424.299L219.193 424.299L219.193 420.325z"/>
<path class="l5" d="M219.193 396.478L223.168 396.478L223.168 400.452L219.193 400.452L219.193 396.478z"/>
<path class="l5" d="M220.187 445.166L222.174 445.166L222.174 447.153L220.187 447.153L220.187 445.166z"/>
<path class="l5" d="M219.193 285.191L223.168 285.191L223.168 289.165L219.193 289.165L219.193 285.191z"/>
<path class="l5" d="M219.193 332.885L223.168 332.885L223.168 336.86L219.193 336.86L219.193 332.885z"/>
<path class="l5" d="M220.187 286.184L222.174 286.184L222.174 288.171L220.187 288.171L220.187 286.184z"/>
<path class="l5" d="M370.226 293.14L374.2 293.14L374.2 297.114L370.226 297.114L370.226 293.14z"/>
<path class="l5" d="M338.43 316.987L342.404 316.987L342.404 320.961L338.43 320.961L338.43 316.987z"/>
<path class="l5" d="M370.226 340.834L374.2 340.834L374.2 344.809L370.226 344.809L370.226 340.834z"/>
<path class="l5" d="M370.226 316.987L374.2 316.987L374.2 320.961L370.226 320.961L370.226 316.987z"/>
<path class="l5" d="M387.118 317.98L389.105 317.98L389.105 319.968L387.118 319.968L387.118 317.98z"/>
<path class="l5" d="M481.513 293.14L485.487 293.14L485.487 297.114L481.513 297.114L481.513 293.14z"/>
<path class="l5" d="M513.309 316.987L517.284 316.987L517.284 320.961L513.309 320.961L513.309 316.987z"/>
<path class="l5" d="M481.513 340.834L485.487 340.834L485.487 344.809L481.513 344.809L481.513 340.834z"/>
<path class="l5" d="M481.513 316.987L485.487 316.987L485.487 320.961L481.513 320.961L481.513 316.987z"/>
<path class="l5" d="M466.608 317.98L468.595 317.98L468.595 319.968L466.608 319.968L466.608 317.98z"/>
<path class="l5" d="M522.252 158.999L524.239 158.999L524.239 160.986L522.252 160.986L522.252 158.999z"/>
<path class="l5" d="M370.226 181.853L374.2 181.853L374.2 185.827L370.226 185.827L370.226 181.853z"/>
<path class="l5" d="M402.022 158.005L405.997 158.005L405.997 161.98L402.022 161.98L402.022 158.005z"/>
<path class="l5" d="M370.226 134.158L374.2 134.158L374.2 138.133L370.226 138.133L370.226 134.158z"/>
<path class="l5" d="M370.226 158.005L374.2 158.005L374.2 161.98L370.226 161.98L370.226 158.005z"/>
<path class="l5" d="M331.474 158.999L333.461 158.999L333.461 160.986L331.474 160.986L331.474 158.999z"/>
<path class="l5" d="M426.863 87.4575L428.85 87.4575L428.85 89.4448L426.863 89.4448L426.863 87.4575z"/>
<path class="l5" d="M323.525 317.98L325.512 317.98L325.512 319.968L323.525 319.968L323.525 317.98z"/>
<path class="l5" d="M530.201 317.98L532.188 317.98L532.188 319.968L530.201 319.968L530.201 317.98z"/>
<path class="l5" d="M593.793 214.643L595.781 214.643L595.781 216.63L593.793 216.63L593.793 214.643z"/>
<path class="l5" d="M220.187 357.726L222.174 357.726L222.174 359.713L220.187 359.713L220.187 357.726z"/>
<path class="l5" d="M37.3586 246.439L39.3458 246.439L39.3458 248.426L37.3586 248.426L37.3586 246.439z"/>
<path class="l5" d="M36.3649 197.751L40.3395 197.751L40.3395 201.725L36.3649 201.725L36.3649 197.751z"/>
<path class="l5" d="M36.3649 245.445L40.3395 245.445L40.3395 249.42L36.3649 249.42L36.3649 245.445z"/>
<path class="l5" d="M61.2058 174.897L63.193 174.897L63.193 176.885L61.2058 176.885L61.2058 174.897z"/>
<path class="l5" d="M37.3586 127.203L39.3458 127.203L39.3458 129.19L37.3586 129.19L37.3586 127.203z"/>
<path class="l5" d="M36.3649 78.5148L40.3395 78.5148L40.3395 82.4893L36.3649 82.4893L36.3649 78.5148z"/>
<path class="l5" d="M36.3649 126.209L40.3395 126.209L40.3395 130.184L36.3649 130.184L36.3649 126.209z"/>
<path class="l5" d="M61.2058 55.6612L63.193 55.6612L63.193 57.6485L61.2058 57.6485L61.2058 55.6612z"/>
<path class="l5" d="M529.207 213.649L533.182 213.649L533.182 217.623L529.207 217.623L529.207 213.649z"/>
<path class="l5" d="M529.207 261.343L533.182 261.343L533.182 265.318L529.207 265.318L529.207 261.343z"/>
<path class="l5" d="M371.219 206.694L373.207 206.694L373.207 208.681L371.219 208.681L371.219 206.694z"/>
<path class="l5" d="M467.229 103.977L467.974 103.977L467.974 104.722L467.229 104.722L467.229 103.977z"/>
<path class="l5" d="M562.618 215.264L563.363 215.264L563.363 216.009L562.618 216.009L562.618 215.264z"/>
<path class="l5" d="M371.84 215.264L372.586 215.264L372.586 216.009L371.84 216.009L371.84 215.264z"/>
<path class="l5" d="M300.299 398.092L301.044 398.092L301.044 398.837L300.299 398.837L300.299 398.092z"/>
<path class="l6" d="M320.544 501.803L952.495 501.803"/>
<path class="l6" d="M14.505 501.803L66.1739 501.803"/>
<path class="l15" d="M470.583 97.3938L475.551 91.432"/>
<path class="l15" d="M467.602 104.349L470.583 97.3938"/>
<path class="l15" d="M475.551 82.4893L475.551 93.4193"/>
<path class="l15" d="M473.564 91.432L490.455 91.432"/>
<path class="l15" d="M477.538 88.4511L481.513 88.4511"/>
<path class="l15" d="M481.513 85.4702L481.513 88.4511"/>
<path class="l15" d="M481.513 85.4702L484.494 85.4702"/>
<path class="l15" d="M484.494 85.4702L484.494 88.4511"/>
<path class="l15" d="M484.494 88.4511L487.475 88.4511"/>
<path class="l15" d="M487.475 85.4702L487.475 88.4511"/>
<path class="l15" d="M487.475 85.4702L489.71 85.4702"/>
<path class="l15" d="M565.972 208.681L570.94 202.719"/>
<path class="l15" d="M562.991 215.636L565.972 208.681"/>
<path class="l15" d="M570.94 193.776L570.94 204.706"/>
<path class="l15" d="M568.952 202.719L585.844 202.719"/>
<path class="l15" d="M572.927 199.738L576.902 199.738"/>
<path class="l15" d="M576.902 196.757L576.902 199.738"/>
<path class="l15" d="M576.902 196.757L579.882 196.757"/>
<path class="l15" d="M579.882 196.757L579.882 199.738"/>
<path class="l15" d="M579.882 199.738L582.863 199.738"/>
<path class="l15" d="M582.863 196.757L582.863 199.738"/>
<path class="l15" d="M582.863 196.757L585.099 196.757"/>
<path class="l15" d="M375.194 208.681L380.162 202.719"/>
<path class="l15" d="M372.213 215.636L375.194 208.681"/>
<path class="l15" d="M380.162 193.776L380.162 204.706"/>
<path class="l15" d="M378.175 202.719L395.067 202.719"/>
<path class="l15" d="M382.149 199.738L386.124 199.738"/>
<path class="l15" d="M386.124 196.757L386.124 199.738"/>
<path class="l15" d="M386.124 196.757L389.105 196.757"/>
<path class="l15" d="M389.105 196.757L389.105 199.738"/>
<path class="l15" d="M389.105 199.738L392.086 199.738"/>
<path class="l15" d="M392.086 196.757L392.086 199.738"/>
<path class="l15" d="M392.086 196.757L394.321 196.757"/>
<path class="l15" d="M303.652 391.509L308.621 385.548"/>
<path class="l15" d="M300.671 398.465L303.652 391.509"/>
<path class="l15" d="M308.621 376.605L308.621 387.535"/>
<path class="l15" d="M306.633 385.548L323.525 385.548"/>
<path class="l15" d="M310.608 382.567L314.582 382.567"/>
<path class="l15" d="M314.582 379.586L314.582 382.567"/>
<path class="l15" d="M314.582 379.586L317.563 379.586"/>
<path class="l15" d="M317.563 379.586L317.563 382.567"/>
<path class="l15" d="M317.563 382.567L320.544 382.567"/>
<path class="l15" d="M320.544 379.586L320.544 382.567"/>
<path class="l15" d="M320.544 379.586L322.78 379.586"/>
<path class="l1" d="M38.3522 279.229L38.3522 303.076"/>
<path class="l1" d="M38.3522 279.229L62.1994 279.229"/>
<path class="l1" d="M221.181 334.872L221.181 374.618"/>
<path class="l1" d="M221.181 374.618L252.977 374.618"/>
<path class="l1" d="M252.977 374.618L252.977 398.465"/>
<path class="l1" d="M252.977 398.465L396.06 398.465"/>
<path class="l1" d="M427.857 342.821L427.857 374.618"/>
<path class="l1" d="M372.213 318.974L388.111 318.974"/>
<path class="l1" d="M467.602 318.974L483.5 318.974"/>
<path class="l1" d="M372.213 342.821L483.5 342.821"/>
<path class="l1" d="M324.519 318.974L340.417 318.974"/>
<path class="l1" d="M515.296 318.974L531.194 318.974"/>
<path class="l1" d="M483.5 159.993L523.245 159.993"/>
<path class="l1" d="M332.468 159.993L372.213 159.993"/>
<path class="l1" d="M404.009 159.993L451.704 159.993"/>
<path class="l1" d="M404.009 159.993L404.009 183.84"/>
<path class="l1" d="M372.213 183.84L404.009 183.84"/>
<path class="l1" d="M372.213 183.84L372.213 295.127"/>
<path class="l1" d="M483.5 183.84L483.5 295.127"/>
<path class="l1" d="M483.5 104.349L483.5 136.146"/>
<path class="l1" d="M372.213 104.349L483.5 104.349"/>
<path class="l1" d="M372.213 104.349L372.213 136.146"/>
<path class="l1" d="M427.857 88.4511L427.857 104.349"/>
<path class="l1" d="M483.5 215.636L594.787 215.636"/>
<path class="l1" d="M38.3522 175.891L38.3522 199.738"/>
<path class="l1" d="M38.3522 175.891L62.1994 175.891"/>
<path class="l1" d="M38.3522 56.6549L38.3522 80.5021"/>
<path class="l1" d="M38.3522 56.6549L62.1994 56.6549"/>
<path class="l1" d="M427.857 422.312L427.857 446.159"/>
<path class="l1" d="M427.857 422.312L443.755 422.312"/>
<path class="l1" d="M443.755 398.465L443.755 422.312"/>
<path class="l1" d="M427.857 398.465L443.755 398.465"/>
<path class="l1" d="M221.181 422.312L221.181 446.159"/>
<path class="l1" d="M205.283 422.312L221.181 422.312"/>
<path class="l1" d="M205.283 398.465L205.283 422.312"/>
<path class="l1" d="M205.283 398.465L221.181 398.465"/>
<circle class="l1" cx="427.857" cy="104.349" r="3.17963"/>
<circle class="l1" cx="483.5" cy="215.636" r="3.17963"/>
<circle class="l1" cx="427.857" cy="342.821" r="3.17963"/>
</svg>
