/* XPM */
static char *icon[] = {
/* width height num_colors chars_per_pixel */
"    60    41        5            1",
/* colors */
". c #000000",
"# c #00a8e8",
"a c #787c78",
"b c #88dc00",
"c c #b00000",
/* pixels */
"............................................................",
"............................................................",
"............................................................",
"............................................................",
".......a...........a...........a...........a...........a....",
"............................................................",
"...................bbbb.....................bbbb............",
"....................b.........................b.............",
"....................c........................cb.............",
"..................b.b......................b..b.............",
"..................bbb......................bbbb.............",
".................bb.......................bb................",
"................bbb......................bbb................",
"..............cbbbb....................cbbbb................",
"...............#bbb.....................#bbb................",
"...............#.bb.....................#.bb................",
".......a.......#..bbb..........a........#..bbbb........a....",
"...............#..b.c...................#..b.cb.............",
"...............#....#...................#.....#.............",
"...............#....#...................#.....#.............",
"......cccc######....#####################.....##############",
"......ccc......#....#...................#.....#.............",
"...............#....#...................#.....#.............",
"...............#....c...................#....cb.............",
"...............#..b.b...................#..b..b.............",
"...............#..bbb...................#..bbbb.............",
"...............#.bb.....................#.bb................",
"...............#.bb.....................#.bb................",
".......a......cbbbba...........a.......cbbbb...........a....",
".................bb.......................bb................",
".................bb.......................bb................",
"..................bbb......................bbbb.............",
"..................b.c......................b.cb.............",
"....................b.........................b.............",
"....................bb.......................bb.............",
"....................b.........................b.............",
"............................................................",
"............................................................",
"............................................................",
"............................................................",
".......a...........a...........a...........a...........a...."
};
