/* XPM */
static char *icon[] = {
/* columns rows colors chars-per-pixel */
"56 42 6 1 ",
"  c #BB2200",
". c #FA0000",
"X c red",
"o c #229900",
"O c #0044EE",
"+ c None",
/* pixels */
"++++++++++++++++++++++++++++++++++++++++++++++++++++++++",
"+++++++++++++++++++++oooo+++++++++++++++++oooo++++++++++",
"++++++++++++++++++++++o++++++++++++++++++++o++++++++++++",
"++++++++++++++++++++++o++++++++++++++++++++o++++++++++++",
"++++++++++++++++++++++O +++++++++++++++++++O +++++++++++",
"++++++++++++++++++++++O +++++++++++++++++++O +++++++++++",
"++++++++++++++++++++++O++++++++++++++++++++O++++++++++++",
"++++++++++++++++++++++O +++++++++++++++++++O +++++++++++",
"++++++++++++++++++++o+OOOOOOOO+++++++++++o+OOOOOOOO+++++",
"++++++++++++++++++++o+o++++++O+++++++++++o+o++++++O+++++",
"++++++++++++++++++o+ooo++++++O+++++++++o+ooo++++++O+++++",
"++++++++++++++++++o+o++++++++O+++++++++o+o++++++++O+++++",
"+++++++++++++++++oo+o++++++++O++++++++oo+o++++++++O+++++",
"++++++++++++OOOO oo+ooOOOOOOOO+++OOOO oo+ooOOOOOOOO+++++",
"++++++++++++O++  oo+o+  +++++++++O++  oo+o+  +++++++++++",
"++++++++++++O+++++o+o++++++++++++O+++++o+o++++++++++++++",
"++++++++++++O+++++o+o++++++++++++O+++++o+o++++++++++++++",
"++++++++++++O+++++++ooo++++++++++O+++++++ooo++++++++++++",
"++++++++++++O+++++++o+O +++++++++O+++++++o+O +++++++++++",
"++   +++++++O+++++++++O +++++++++O+++++++++O +++++++   +",
".+   OOOOOOOO+++++++++OOOOOOOOOOOO+++++++++OOOOOOOOOO   ",
"X+   +++++++O+++++++++O +++++++++O+++++++++O +++++++   +",
"++++++++++++O+++++++o+O +++++++++O+++++++o+O +++++++++++",
"++++++++++++O+++++++o+o++++++++++O+++++++o+o++++++++++++",
"++++++++++++O+++++o+ooo++++++++++O+++++o+ooo++++++++++++",
"++++++++++++O+++++o+o++++++++++++O+++++o+o++++++++++++++",
"++++++++++++O+++++o+o++++++++++++O+++++o+o++++++++++++++",
"++++++++++++OOOO oo+ooOOOOOOOO+++OOOO oo+ooOOOOOOOO+++++",
"+++++++++++++++  +o+o+  +++++O++++++  +o+o+  +++++O+++++",
"++++++++++++++++++o+o++++++++O+++++++++o+o++++++++O+++++",
"++++++++++++++++++o+o++++++++O+++++++++o+o++++++++O+++++",
"++++++++++++++++++++ooo++++++O+++++++++++ooo++++++O+++++",
"++++++++++++++++++++o+OOOOOOOO+++++++++++o+OOOOOOOO+++++",
"++++++++++++++++++++++O +++++++++++++++++++O +++++++++++",
"++++++++++++++++++++++O++++++++++++++++++++O++++++++++++",
"++++++++++++++++++++++O +++++++++++++++++++O +++++++++++",
"++++++++++++++++++++++O +++++++++++++++++++O +++++++++++",
"++++++++++++++++++++++o++++++++++++++++++++o++++++++++++",
"+++++++++++++++++++++ooo+++++++++++++++++++oo+++++++++++",
"++++++++++++++++++++++o++++++++++++++++++++o++++++++++++",
"++++++++++++++++++++++++++++++++++++++++++++++++++++++++",
"++++++++++++++++++++++++++++++++++++++++++++++++++++++++"
};

