/* XPM */
static char *icon[] = {
/* columns rows colors chars-per-pixel */
"56 42 6 1 ",
"  c #BB2200",
". c #FA0000",
"X c red",
"o c #229900",
"O c #0044EE",
"+ c None",
/* pixels */
"++++++++++++++++++++++++++++++++++++++++++++++++++++++++",
"+++++++++++++++++++++ooo++++++++++++++++++ooo+++++++++++",
"++++++++++++++++++++++o++++++++++++++++++++o++++++++++++",
"++++++++++++++++++++++o++++++++++++++++++++o++++++++++++",
"++++++++++++++++++++++O++++++++++++++++++++O++++++++++++",
"++++++++++++++++++++++O++++++++++++++++++++O++++++++++++",
"++++++++++++++++++++++O++++++++++++++++++++O++++++++++++",
"++++++++++++++++++++++  +++++++++++++++++++  +++++++++++",
"++++++++++++++++++++o+ OOOOOOO+++++++++++o+ OOOOOOO+++++",
"++++++++++++++++++++o+o++++++O+++++++++++o+o++++++O+++++",
"++++++++++++++++++o+ooo++++++O+++++++++o+ooo++++++O+++++",
"++++++++++++++++++o+o++++++++O+++++++++o+o++++++++O+++++",
"+++++++++++++++++oo+o++++++++O++++++++oo+o++++++++O+++++",
"++++++++++++OOOO oo+oo OOOOOOO+++OOOO oo+oo OOOOOOO+++++",
"++++++++++++O++  oo+o+  +++++++++O++  oo+o+  +++++++++++",
"++++++++++++O+++++o+o++++++++++++O+++++o+o++++++++++++++",
"++++++++++++O+++++o+o++++++++++++O+++++o+o++++++++++++++",
"++++++++++++O+++++++ooo++++++++++O+++++++ooo++++++++++++",
"++++++++++++O+++++++o+O +++++++++O+++++++o+O +++++++++++",
"++   +++++++O+++++++++O +++++++++O+++++++++O +++++++   +",
"++    OOOOOOO+++++++++OOOOOOOOOOOO+++++++++OOOOOOOOO    ",
"++   +++++++O+++++++++O +++++++++O+++++++++O +++++++   +",
"++++++++++++O+++++++o+O +++++++++O+++++++o+O +++++++++++",
"++++++++++++O+++++++o+o++++++++++O+++++++o+o++++++++++++",
"++++++++++++O+++++o+ooo++++++++++O+++++o+ooo++++++++++++",
"++++++++++++O+++++o+o++++++++++++O+++++o+o++++++++++++++",
"++++++++++++O+++++o+o++++++++++++O+++++o+o++++++++++++++",
"++++++++++++OOOO oo+oo OOOOOOO+++OOOO oo+oo OOOOOOO+++++",
"+++++++++++++++  +o+o+  +++++O++++++  +o+o+  +++++O+++++",
"++++++++++++++++++o+o++++++++O+++++++++o+o++++++++O+++++",
"++++++++++++++++++o+o++++++++O+++++++++o+o++++++++O+++++",
"++++++++++++++++++++ooo++++++O+++++++++++ooo++++++O+++++",
"++++++++++++++++++++o+ OOOOOOO+++++++++++o+ OOOOOOO+++++",
"++++++++++++++++++++++  +++++++++++++++++++  +++++++++++",
"++++++++++++++++++++++O++++++++++++++++++++O++++++++++++",
"++++++++++++++++++++++O++++++++++++++++++++O++++++++++++",
"++++++++++++++++++++++o++++++++++++++++++++o++++++++++++",
"++++++++++++++++++++++o++++++++++++++++++++o++++++++++++",
"+++++++++++++++++++++ooo++++++++++++++++++ooo+++++++++++",
"++++++++++++++++++++++o++++++++++++++++++++o++++++++++++",
"++++++++++++++++++++++++++++++++++++++++++++++++++++++++",
"++++++++++++++++++++++++++++++++++++++++++++++++++++++++"
};

